<svg xmlns="http://www.w3.org/2000/svg" xmlns:xlink="http://www.w3.org/1999/xlink" width="500" zoomAndPan="magnify" viewBox="0 0 375 374.999991" height="500" preserveAspectRatio="xMidYMid meet" version="1.0"><defs><clipPath id="3fd5baf00a"><path d="M 55 28.1875 L 219 28.1875 L 219 253 L 55 253 Z M 55 28.1875 " clip-rule="nonzero"/></clipPath></defs><path fill="#39b54a" d="M 301.484375 287.292969 C 269.316406 339.722656 229.902344 346.703125 192.519531 330.964844 C 192.734375 323.398438 193.324219 315.238281 194.4375 306.648438 C 201.738281 250.324219 273.535156 156.851562 274.390625 155.734375 C 273.523438 156.460938 200.816406 217.019531 176.242188 292.691406 C 173.125 302.289062 171.042969 310.878906 169.785156 318.570312 C 130.84375 292.414062 112.417969 251.574219 148.207031 193.246094 C 185.507812 132.457031 309.890625 101.667969 309.890625 101.667969 C 309.890625 101.667969 338.785156 226.507812 301.484375 287.292969 Z M 301.484375 287.292969 " fill-opacity="1" fill-rule="nonzero"/><g clip-path="url(#3fd5baf00a)"><path fill="#0b7333" d="M 218.695312 122.484375 C 191.285156 135.460938 163.207031 152.707031 145.632812 174.1875 C 119.398438 133.152344 97.109375 89.191406 96.582031 87.914062 C 96.808594 89.265625 108.246094 138.160156 136 188.257812 C 121.652344 212.894531 117.089844 234.339844 119.6875 252.820312 C 101.3125 246.453125 84.070312 231.230469 69.449219 204.019531 C 37.519531 144.605469 71.554688 28.300781 71.554688 28.300781 C 71.554688 28.300781 185.992188 63.6875 218.695312 122.484375 Z M 218.695312 122.484375 " fill-opacity="1" fill-rule="nonzero"/></g></svg>