<svg xmlns="http://www.w3.org/2000/svg" xmlns:xlink="http://www.w3.org/1999/xlink" width="500" zoomAndPan="magnify" viewBox="0 0 375 374.999991" height="500" preserveAspectRatio="xMidYMid meet" version="1.0"><defs><clipPath id="65f32608e7"><path d="M 123 130 L 292 130 L 292 327.503906 L 123 327.503906 Z M 123 130 " clip-rule="nonzero"/></clipPath><clipPath id="11da222b88"><path d="M 178 47.753906 L 236 47.753906 L 236 96 L 178 96 Z M 178 47.753906 " clip-rule="nonzero"/></clipPath><clipPath id="11e35a302e"><path d="M 254 100 L 315.898438 100 L 315.898438 127 L 254 127 Z M 254 100 " clip-rule="nonzero"/></clipPath></defs><g clip-path="url(#65f32608e7)"><path fill="#2ba03f" d="M 169.378906 131.671875 C 167.699219 131.671875 166.144531 131.167969 164.816406 130.339844 L 164.816406 132.988281 C 164.816406 136.191406 163.027344 139.109375 160.195312 140.609375 C 138.273438 152.210938 123.246094 175.265625 123.246094 201.667969 L 123.246094 310.214844 C 123.246094 319.710938 131.015625 327.476562 140.511719 327.476562 L 274.238281 327.476562 C 283.730469 327.476562 291.5 319.710938 291.5 310.214844 L 291.5 201.667969 C 291.5 175.265625 276.472656 152.210938 254.550781 140.609375 C 251.71875 139.109375 249.933594 136.191406 249.933594 132.988281 L 249.933594 130.339844 C 248.605469 131.167969 247.046875 131.671875 245.367188 131.671875 Z M 169.378906 131.671875 " fill-opacity="1" fill-rule="nonzero"/></g><g clip-path="url(#11da222b88)"><path fill="#2ba03f" d="M 210.722656 59.21875 L 232.335938 59.21875 C 235.277344 59.21875 236.359375 55.277344 233.789062 53.84375 C 227.113281 50.125 217.480469 47.785156 206.761719 47.785156 C 196.042969 47.785156 186.410156 50.125 179.734375 53.84375 C 177.164062 55.277344 178.246094 59.21875 181.1875 59.21875 L 202.804688 59.21875 L 202.804688 95.371094 L 210.722656 95.371094 Z M 210.722656 59.21875 " fill-opacity="1" fill-rule="nonzero"/></g><path fill="#2ba03f" d="M 160.746094 105.925781 L 111.730469 105.925781 C 97.046875 105.925781 84.289062 116.019531 80.921875 130.304688 L 60.960938 214.886719 C 59.398438 221.515625 64.429688 227.867188 71.242188 227.867188 C 76.140625 227.867188 80.398438 224.5 81.519531 219.734375 L 102.402344 131.234375 C 103.9375 124.742188 109.734375 120.152344 116.40625 120.152344 L 160.746094 120.152344 Z M 160.746094 105.925781 " fill-opacity="1" fill-rule="nonzero"/><g clip-path="url(#11e35a302e)"><path fill="#2ba03f" d="M 309.488281 104.59375 L 279.566406 100.242188 C 277.84375 99.992188 276.300781 101.328125 276.300781 103.070312 C 276.300781 104.648438 275.019531 105.925781 273.441406 105.925781 L 254.746094 105.925781 C 254.492188 105.925781 254.25 105.976562 254.003906 106 L 254.003906 120.804688 C 254.25 120.828125 254.492188 120.878906 254.746094 120.878906 L 273.441406 120.878906 C 275.019531 120.878906 276.300781 122.15625 276.300781 123.734375 C 276.300781 125.472656 277.84375 126.8125 279.566406 126.558594 L 309.488281 122.210938 C 313.160156 121.675781 315.890625 118.527344 315.890625 114.8125 L 315.890625 111.992188 C 315.890625 108.277344 313.160156 105.128906 309.488281 104.59375 Z M 309.488281 104.59375 " fill-opacity="1" fill-rule="nonzero"/></g><path fill="#2ba03f" d="M 245.371094 98.558594 L 169.378906 98.558594 C 166.375 98.558594 163.933594 101 163.933594 104 L 163.933594 123.039062 C 163.933594 124.910156 164.898438 126.628906 166.507812 127.640625 C 167.402344 128.199219 168.367188 128.484375 169.378906 128.484375 L 245.371094 128.484375 C 246.378906 128.484375 247.347656 128.199219 248.242188 127.640625 C 249.851562 126.632812 250.816406 124.910156 250.816406 123.042969 L 250.816406 104.003906 C 250.816406 101 248.371094 98.558594 245.371094 98.558594 Z M 245.371094 98.558594 " fill-opacity="1" fill-rule="nonzero"/><path fill="#ffffff" d="M 249.425781 130.636719 C 249.082031 130.820312 248.722656 130.984375 248.351562 131.125 C 248.722656 130.984375 249.078125 130.824219 249.425781 130.636719 Z M 249.425781 130.636719 " fill-opacity="1" fill-rule="nonzero"/><path fill="#ffffff" d="M 253.550781 125.792969 C 253.433594 126.136719 253.292969 126.472656 253.136719 126.796875 C 253.296875 126.472656 253.433594 126.136719 253.550781 125.792969 Z M 253.550781 125.792969 " fill-opacity="1" fill-rule="nonzero"/><path fill="#ffffff" d="M 253.929688 124.175781 C 253.878906 124.546875 253.808594 124.910156 253.710938 125.269531 C 253.808594 124.914062 253.878906 124.550781 253.929688 124.175781 Z M 253.929688 124.175781 " fill-opacity="1" fill-rule="nonzero"/><path fill="#ffffff" d="M 254.003906 123.039062 C 254.003906 123.425781 253.976562 123.804688 253.929688 124.175781 C 253.976562 123.804688 254.003906 123.425781 254.003906 123.039062 Z M 254.003906 123.039062 " fill-opacity="1" fill-rule="nonzero"/><path fill="#ffffff" d="M 164.046875 129.792969 C 164.292969 129.988281 164.550781 130.171875 164.816406 130.339844 C 165.980469 131.066406 167.316406 131.539062 168.757812 131.644531 C 167.316406 131.539062 165.980469 131.066406 164.816406 130.339844 C 164.550781 130.171875 164.292969 129.988281 164.046875 129.792969 Z M 164.046875 129.792969 " fill-opacity="1" fill-rule="nonzero"/><path fill="#ffffff" d="M 180.765625 197.746094 C 161.3125 212.398438 154.769531 232.410156 154.03125 245.640625 C 153.847656 248.929688 154.0625 251.835938 154.761719 254.554688 C 155.421875 257.128906 158.769531 257.796875 160.355469 255.664062 C 169.40625 243.507812 197.25 220.527344 210.605469 214.15625 C 204.210938 227.511719 178.363281 253.578125 168.082031 262.128906 C 163.089844 265.632812 157.359375 268.863281 151.4375 271.507812 C 148.992188 272.601562 147.625 275.234375 148.136719 277.859375 C 148.851562 281.507812 152.796875 283.546875 156.171875 281.984375 C 161.488281 279.519531 166.496094 276.578125 171.15625 273.21875 C 171.941406 273.59375 172.75 273.941406 173.578125 274.265625 C 182.890625 277.867188 195.769531 276.980469 208.816406 270.160156 C 248.074219 249.636719 257.925781 180.507812 257.925781 180.507812 C 258.125 178.847656 203.761719 180.421875 180.765625 197.746094 Z M 180.765625 197.746094 " fill-opacity="1" fill-rule="nonzero"/></svg>