<svg xmlns="http://www.w3.org/2000/svg" xmlns:xlink="http://www.w3.org/1999/xlink" width="500" zoomAndPan="magnify" viewBox="0 0 375 374.999991" height="500" preserveAspectRatio="xMidYMid meet" version="1.0"><defs><clipPath id="98c19ff447"><path d="M 278 300 L 337.707031 300 L 337.707031 337 L 278 337 Z M 278 300 " clip-rule="nonzero"/></clipPath></defs><path fill="#e7c034" d="M 306.734375 333.191406 L 112.300781 333.191406 C 89.199219 241.414062 89.199219 149.644531 112.300781 57.867188 C 177.230469 39.070312 242.042969 39.003906 306.734375 57.867188 C 330.550781 149.644531 330.550781 241.414062 306.734375 333.191406 Z M 306.734375 333.191406 " fill-opacity="1" fill-rule="nonzero"/><path fill="#e7c034" d="M 282.050781 303.378906 L 314.410156 303.378906 C 325.539062 303.378906 334.574219 312.410156 334.574219 323.535156 C 334.574219 328.863281 330.246094 333.191406 324.914062 333.191406 L 282.054688 333.191406 L 282.054688 303.378906 Z M 282.050781 303.378906 " fill-opacity="1" fill-rule="nonzero"/><path fill="#e7c034" d="M 137.519531 333.191406 L 94.660156 333.191406 C 89.328125 333.191406 85 328.863281 85 323.535156 C 85 312.410156 94.035156 303.378906 105.164062 303.378906 L 137.523438 303.378906 L 137.523438 333.191406 Z M 137.519531 333.191406 " fill-opacity="1" fill-rule="nonzero"/><g clip-path="url(#98c19ff447)"><path stroke-linecap="round" transform="matrix(0.680822, 0, 0, 0.680488, 14.384429, 39.908369)" fill="none" stroke-linejoin="round" d="M 417.587877 387.178672 L 440.670034 387.178672 C 457.027785 387.178672 470.287259 400.438912 470.287259 416.798948 C 470.287259 424.640285 463.94153 430.989127 456.098302 430.989127 L 393.151658 430.989127 " stroke="#000000" stroke-width="9.31" stroke-opacity="1" stroke-miterlimit="4"/></g><path stroke-linecap="round" transform="matrix(0.680822, 0, 0, 0.680488, 14.384429, 39.908369)" fill="none" stroke-linejoin="round" d="M 152.662315 387.178672 L 133.338252 387.178672 C 116.980501 387.178672 103.721027 400.438912 103.721027 416.798948 C 103.721027 424.640285 110.072493 430.989127 117.909984 430.989127 L 180.862366 430.989127 " stroke="#000000" stroke-width="9.31" stroke-opacity="1" stroke-miterlimit="4"/><path fill="#e7c034" d="M 95.074219 54.628906 C 94.355469 66.339844 98.648438 77.335938 107.976562 87.617188 L 138.921875 56.6875 C 128.175781 46.847656 117.367188 42.34375 106.492188 43.167969 C 100.378906 43.636719 95.457031 48.503906 95.082031 54.621094 Z M 95.074219 54.628906 " fill-opacity="1" fill-rule="nonzero"/><path stroke-linecap="round" transform="matrix(0.680822, 0, 0, 0.680488, 14.384429, 39.908369)" fill="none" stroke-linejoin="round" d="M 138.209431 34.829412 C 137.268473 31.057994 136.889794 27.240652 137.079134 23.337204 C 137.721739 23.302762 138.370082 23.279801 139.012687 23.279801 C 140.240523 23.279801 141.468358 23.360166 142.719144 23.520896 " stroke="#ffffff" stroke-width="9.31" stroke-opacity="0.8" stroke-miterlimit="4"/><path stroke-linecap="round" transform="matrix(0.680822, 0, 0, 0.680488, 14.384429, 39.908369)" fill="none" stroke-linejoin="round" d="M 203.737971 16.540614 C 197.690595 32.808804 191.752233 51.470727 199.802013 66.83768 C 202.42981 71.860498 206.509207 76.389645 207.100175 82.032422 C 207.920644 89.862278 201.838843 96.440735 197.478306 102.99049 C 192.589915 110.338155 189.491639 118.988883 189.250662 127.811822 C 188.797395 144.252224 197.988948 159.711023 198.132386 176.151424 C 198.281563 194.801866 186.812203 212.011476 186.611389 230.650436 C 186.490901 242.217269 190.719474 253.330613 193.289896 264.610428 C 196.307846 277.870668 197.059465 291.659021 195.481639 305.171837 C 194.397242 314.408082 192.239924 323.759134 193.869388 332.920755 C 194.770183 337.978015 196.818488 342.960651 196.330796 348.069574 C 195.430001 357.558395 185.79092 364.280361 176.301015 365.221781 C 166.822585 366.15172 157.510544 362.718982 148.588656 359.349389 C 145.410054 358.149653 142.122439 356.869552 139.798732 354.389715 C 137.182409 351.599898 136.178338 347.707931 135.329181 343.982435 C 126.998261 307.58279 124.221288 270.161359 122.259046 232.877698 C 121.702504 222.280986 121.209075 211.661314 121.358251 201.041641 C 121.932006 160.061185 132.012878 119.740871 133.957907 78.800598 C 134.261997 72.480457 134.359536 66.097173 133.06285 59.909061 C 131.622725 53.032105 128.490024 46.620119 126.430244 39.898153 C 124.370464 33.181928 123.440981 25.667792 126.338443 19.267287 C 129.241642 12.861041 137.038971 8.331894 143.539613 11.018384 C 146.959192 12.430514 149.391913 15.438464 152.08856 17.969964 C 162.680075 27.877832 179.382078 30.638947 192.589915 24.651748 C 182.451667 36.717992 180.82794 55.230665 188.722807 68.881249 C 191.75797 74.150903 196.250471 79.730537 194.557894 85.568486 C 193.8407 88.048324 192.090748 90.068931 190.547347 92.141203 C 177.700977 109.390995 178.297682 133.282389 183.581964 154.131389 C 185.331916 161.048528 187.552347 167.971406 187.460546 175.112418 C 187.380221 181.099618 185.687644 186.920346 184.258994 192.741075 C 181.889387 202.44803 180.271398 212.321455 178.682097 222.17766 C 177.471475 229.709017 176.278065 237.33222 176.909195 244.932461 C 177.569013 252.900086 180.208285 260.551991 181.900862 268.358885 C 184.821274 281.86022 184.907337 295.792083 184.981925 309.597657 C 185.050776 322.989926 185.119627 336.382194 185.188477 349.768722 C 175.411695 339.057203 162.582536 331.158463 148.617343 327.232054 C 144.10763 325.957694 138.897936 324.648891 136.832419 320.452685 C 135.908674 318.592807 135.79966 316.457392 135.70786 314.390861 C 134.089871 274.541257 137.922553 234.49074 133.940695 194.801866 C 132.557945 181.042214 130.239976 167.24238 131.519449 153.471248 C 132.24238 145.738978 134.089871 138.161698 135.639009 130.549976 C 138.157793 118.248376 139.930695 105.791787 140.951979 93.272054 C 141.801136 82.801631 142.110964 72.158997 139.94217 61.878006 C 137.452074 50.121741 131.708788 38.641014 133.171863 26.712538 C 133.332514 25.392255 133.602179 24.037529 134.342323 22.929639 C 136.539804 19.657631 141.772448 20.231668 144.870724 22.671322 C 147.969001 25.110977 149.839441 28.779069 152.581989 31.620549 C 158.222 37.452759 167.752068 39.071541 174.998591 35.432151 C 176.731331 38.979695 174.292873 42.99795 172.760947 46.6316 C 169.588083 54.128515 170.420028 63.181068 174.901053 69.977659 C 177.987854 74.679017 182.91067 79.047433 182.382816 84.650028 C 182.147577 87.03802 180.908266 89.202137 179.829607 91.349033 C 172.651934 105.590875 171.768351 122.192006 172.852748 138.098554 C 173.931407 154.010842 176.840344 169.819803 176.719856 185.772274 C 176.559204 206.351477 171.34951 226.660884 171.458524 247.251568 C 171.619175 276.952209 182.801657 306.95709 175.612509 335.779456 C 175.038754 330.021871 170.729855 325.159783 165.652125 322.381447 C 160.568657 319.59163 154.762258 318.518182 149.07061 317.450475 C 147.418196 317.140495 145.708406 316.807554 144.348607 315.831692 C 140.659364 313.191125 141.267544 307.640193 142.082276 303.179931 C 148.978809 265.190204 141.101155 226.28202 139.718406 187.701036 C 138.788923 161.599603 140.848703 135.440766 144.629747 109.597649 C 146.4715 96.99755 148.732094 84.248203 147.26902 71.602182 C 145.668244 57.779386 139.66103 44.610992 139.31104 30.702091 C 145.27809 34.94996 151.262353 39.192089 157.229404 43.439958 C 159.880151 45.322797 162.639912 47.337665 164.039874 50.270991 C 168.199596 59.007824 158.698216 71.56774 165.778351 78.169158 C 168.6127 80.809725 173.902719 82.359623 173.260114 86.182705 C 173.047825 87.451326 172.141292 88.46737 171.332298 89.471934 C 163.420218 99.230552 162.209596 112.737627 162.731713 125.291803 C 163.747259 150.18776 170.207738 174.607266 171.579012 199.497483 C 173.328965 231.241694 166.770947 262.830915 165.927527 294.598087 C 165.7095 302.938836 166.002115 311.721592 170.247901 318.902787 C 165.049682 314.591774 159.839988 310.280761 154.641769 305.969748 C 153.178695 304.758531 151.681194 303.501391 150.889413 301.779282 C 150.200907 300.269566 150.132056 298.558938 150.068943 296.899973 C 149.13946 270.769838 148.221453 244.622482 148.267353 218.469385 C 148.341941 180.18116 150.499259 141.881454 149.231261 103.610449 C 148.617343 85.212584 147.211644 66.808978 147.607535 48.399632 C 147.64196 46.769369 147.969001 44.748761 149.529614 44.26083 C 151.641032 43.600688 153.040993 46.407726 153.408196 48.577583 C 155.330275 59.782773 155.789279 71.240539 154.762258 82.560536 C 154.492593 85.568486 155.072085 89.787654 158.090036 89.89098 C 160.580132 89.982826 161.84813 86.997837 162.439098 84.581144 C 165.267709 85.109257 166.111129 89.018445 164.957881 91.659012 C 163.810372 94.299579 161.469452 96.228342 159.949002 98.667996 C 157.820371 102.100734 157.430218 106.30268 157.108915 110.320934 C 151.767258 175.847185 146.4715 242.38948 159.289184 306.870985 C 164.148887 255.517692 150.200907 202.941701 161.159624 152.529828 C 160.998973 182.218989 162.777613 211.908149 166.501282 241.367695 C 175.669884 233.572282 177.660814 220.357965 178.332107 208.337643 C 180.110747 176.352337 176.851819 144.292406 177.368199 112.249697 C 165.221809 77.10719 179.812394 46.109227 203.760922 16.552095 Z M 203.737971 16.540614 " stroke="#ffffff" stroke-width="16.540001" stroke-opacity="0.2" stroke-miterlimit="4"/><path stroke-linecap="round" transform="matrix(0.680822, 0, 0, 0.680488, 14.384429, 39.908369)" fill="none" stroke-linejoin="round" d="M 429.407226 430.989127 L 236.20102 430.989127 " stroke="#000000" stroke-width="9.31" stroke-opacity="1" stroke-miterlimit="4"/><path stroke-linecap="round" transform="matrix(0.680822, 0, 0, 0.680488, 14.384429, 39.908369)" fill="none" stroke-linejoin="round" d="M 438.948769 67.342832 C 461.009643 174.010269 461.198982 280.677705 439.499574 387.350883 " stroke="#000000" stroke-width="9.31" stroke-opacity="1" stroke-miterlimit="4"/><path stroke-linecap="round" transform="matrix(0.680822, 0, 0, 0.680488, 14.384429, 39.908369)" fill="none" stroke-linejoin="round" d="M 175.268256 18.279944 C 249.82196 1.420496 324.260914 1.397535 398.602329 18.37753 " stroke="#000000" stroke-width="9.31" stroke-opacity="1" stroke-miterlimit="4"/><path stroke-linecap="round" transform="matrix(0.680822, 0, 0, 0.680488, 14.384429, 39.908369)" fill="none" stroke-linejoin="round" d="M 118.678816 251.057429 C 116.969026 189.6585 122.299209 128.259571 134.652151 66.860641 " stroke="#000000" stroke-width="9.31" stroke-opacity="1" stroke-miterlimit="4"/><path fill="#e7c034" d="M 324.492188 54.628906 C 325.214844 66.339844 320.917969 77.335938 311.589844 87.617188 L 280.648438 56.6875 C 291.390625 46.847656 302.203125 42.34375 313.074219 43.167969 C 319.1875 43.636719 324.109375 48.503906 324.484375 54.621094 Z M 324.492188 54.628906 " fill-opacity="1" fill-rule="nonzero"/><path stroke-linecap="round" transform="matrix(0.680822, 0, 0, 0.680488, 14.384429, 39.908369)" fill="none" stroke-linejoin="round" d="M 363.901636 16.098606 C 367.522029 30.85134 366.919586 42.332068 361.291051 57.848271 C 355.662516 73.381694 347.761912 89.391569 351.038052 105.562173 C 352.747842 113.989027 357.378043 121.520384 360.998436 129.35024 C 376.162777 162.242523 373.139089 200.530749 364.297527 235.569928 C 360.677134 249.949539 356.09857 264.288967 355.760055 279.087625 C 355.410064 294.190521 359.472248 308.989179 362.071358 323.879682 C 367.447441 354.659512 366.581071 386.122445 365.691751 417.338542 C 388.159991 426.270548 413.187177 428.911115 437.078329 424.88712 C 443.297831 423.842374 452.799211 424.232719 457.458101 420.047994 C 462.122728 415.869009 461.279308 406.449072 457.779403 401.288485 C 455.071281 397.298933 449.982075 395.737554 445.862515 393.160131 C 432.149775 384.561066 433.572687 364.492755 434.909535 348.580467 C 438.742218 303.047902 451.732027 259.972214 451.359087 214.2904 C 450.968933 165.061042 427.19827 114.947667 433.762026 67.342832 C 434.811997 59.742591 440.968386 52.102167 443.521596 44.651175 C 447.251002 33.738743 451.181223 18.601404 440.761835 13.308789 C 431.66782 8.687796 421.891038 17.281121 412.877349 22.068584 C 399.97934 28.928319 383.047835 27.659698 371.348974 18.968788 C 374.871828 27.120104 378.440584 35.558439 378.279932 44.410079 C 378.010267 59.122631 367.579404 71.757172 364.389328 86.131042 C 359.162421 109.718196 373.867758 132.731314 378.199607 156.50216 C 382.399492 179.5612 376.719319 203.067989 373.271052 226.241837 C 364.578667 284.7017 370.201464 344.200569 375.841474 403.022075 C 376.168514 406.42037 376.587355 410.059761 378.8709 412.637184 C 381.802787 415.960855 386.771504 416.471747 391.241054 416.741544 C 402.538287 417.430388 413.841257 418.107751 425.13849 418.802335 C 430.962102 419.152497 443.429795 414.290409 445.839565 409.078159 C 449.287832 401.592725 434.048903 400.031346 427.967102 394.371347 C 418.121469 385.198246 417.3928 370.221637 418.178844 356.909734 C 422.017264 292.841536 445.931366 229.502364 437.061116 165.910616 C 431.94896 129.327278 416.19939 91.641791 428.730196 56.832226 C 432.757955 45.621296 439.717601 34.088905 436.361135 22.682803 C 422.309879 34.077425 403.651371 39.84075 385.480556 38.371217 C 392.18775 64.432468 373.339903 91.050534 376.398016 117.760446 C 377.820928 130.188333 383.908467 141.651839 386.501839 153.901775 C 389.502577 168.091954 387.700987 182.770064 386.157586 197.178376 C 379.467605 259.731119 377.889779 322.811974 381.441321 385.611552 C 381.802787 392.000577 382.342117 398.762725 386.100211 403.992197 C 394.310643 415.432741 415.579735 412.482194 429.407226 409.072418 C 418.861612 405.93244 411.431487 397.488365 408.161085 387.161451 C 404.879207 376.828796 401.448153 365.388251 402.360423 354.607848 C 408.470912 281.837259 436.688175 208.980564 420.990243 137.610623 C 415.700223 113.56998 403.330069 89.271021 411.488863 66.011068 C 414.558451 57.268494 422.40168 48.112614 421.529572 38.89933 C 418.339495 47.768192 404.98822 47.940403 398.860519 55.167521 C 396.39911 58.060664 395.349139 61.832083 394.368018 65.471473 C 390.919751 78.19786 387.448535 91.062014 386.85183 104.218928 C 386.140374 119.89012 389.51979 135.412064 391.361543 150.991411 C 400.139992 225.042101 374.269386 300.1605 384.711724 373.998797 C 386.381351 385.852648 389.23865 398.079622 397.058928 407.258464 C 402.050595 402.987633 399.508861 395.129075 397.24253 389.021328 C 384.172395 353.867342 394.069666 315.091185 401.218651 278.341377 C 412.779811 218.888431 416.790357 158.017616 413.112589 97.611769 C 412.452771 86.802665 411.127397 75.05214 403.439082 67.279688 C 393.071332 87.589094 399.939178 111.738804 403.198105 134.229549 C 409.979887 180.921666 400.048191 228.222263 390.168133 274.380527 C 408.24141 159.527331 417.398537 63.387721 363.907373 16.069904 Z M 363.901636 16.098606 " stroke="#000000" stroke-width="16.299999" stroke-opacity="0.1" stroke-miterlimit="4"/><path stroke-linecap="round" transform="matrix(0.680822, 0, 0, 0.680488, 14.384429, 39.908369)" fill="none" stroke-linejoin="round" d="M 182.922146 24.657488 C 167.13815 10.197512 151.262353 3.578873 135.289018 4.79009 C 126.309755 5.478933 119.080444 12.631426 118.52964 21.620836 C 117.468193 38.830446 123.779496 54.989569 137.480762 70.098206 " stroke="#000000" stroke-width="9.31" stroke-opacity="1" stroke-miterlimit="4"/><path stroke-linecap="round" transform="matrix(0.680822, 0, 0, 0.680488, 14.384429, 39.908369)" fill="none" stroke-linejoin="round" d="M 391.091878 24.657488 C 406.870136 10.197512 422.75167 3.578873 438.719267 4.79009 C 447.698531 5.478933 454.927842 12.631426 455.478646 21.620836 C 456.540093 38.830446 450.22879 54.989569 436.527524 70.098206 " stroke="#000000" stroke-width="9.31" stroke-opacity="1" stroke-miterlimit="4"/><path stroke-linecap="round" transform="matrix(0.680822, 0, 0, 0.680488, 14.384429, 39.908369)" fill="none" stroke-linejoin="round" d="M 190.180144 56.527987 C 256.930783 44.249349 323.681421 44.249349 390.43206 56.527987 " stroke="#000000" stroke-width="9.31" stroke-opacity="1" stroke-miterlimit="4"/><path fill="#ca4f0b" d="M 280.203125 200.007812 C 280.203125 201.117188 280.175781 202.222656 280.121094 203.332031 C 280.070312 204.4375 279.988281 205.542969 279.878906 206.644531 C 279.769531 207.75 279.632812 208.847656 279.472656 209.945312 C 279.308594 211.042969 279.117188 212.132812 278.902344 213.21875 C 278.6875 214.308594 278.441406 215.386719 278.175781 216.464844 C 277.90625 217.539062 277.609375 218.605469 277.285156 219.667969 C 276.964844 220.726562 276.617188 221.78125 276.242188 222.824219 C 275.871094 223.867188 275.472656 224.902344 275.046875 225.925781 C 274.621094 226.949219 274.171875 227.960938 273.699219 228.964844 C 273.222656 229.964844 272.726562 230.957031 272.203125 231.933594 C 271.679688 232.910156 271.132812 233.875 270.5625 234.828125 C 269.992188 235.777344 269.402344 236.714844 268.785156 237.636719 C 268.167969 238.558594 267.53125 239.460938 266.871094 240.351562 C 266.207031 241.242188 265.527344 242.117188 264.824219 242.972656 C 264.121094 243.832031 263.394531 244.667969 262.652344 245.492188 C 261.90625 246.3125 261.140625 247.113281 260.359375 247.898438 C 259.574219 248.683594 258.769531 249.445312 257.949219 250.191406 C 257.128906 250.933594 256.289062 251.660156 255.429688 252.363281 C 254.574219 253.066406 253.699219 253.746094 252.808594 254.40625 C 251.917969 255.066406 251.011719 255.707031 250.089844 256.320312 C 249.167969 256.9375 248.230469 257.53125 247.277344 258.101562 C 246.328125 258.667969 245.363281 259.214844 244.386719 259.738281 C 243.40625 260.261719 242.417969 260.757812 241.414062 261.234375 C 240.410156 261.707031 239.398438 262.15625 238.375 262.582031 C 237.347656 263.003906 236.316406 263.402344 235.269531 263.777344 C 234.226562 264.148438 233.175781 264.496094 232.113281 264.820312 C 231.050781 265.140625 229.984375 265.4375 228.90625 265.707031 C 227.832031 265.976562 226.75 266.21875 225.664062 266.433594 C 224.574219 266.652344 223.480469 266.839844 222.386719 267.003906 C 221.289062 267.164062 220.1875 267.300781 219.085938 267.410156 C 217.980469 267.519531 216.875 267.601562 215.765625 267.652344 C 214.660156 267.707031 213.550781 267.734375 212.441406 267.734375 C 211.332031 267.734375 210.226562 267.707031 209.117188 267.652344 C 208.011719 267.601562 206.902344 267.519531 205.800781 267.410156 C 204.695312 267.300781 203.597656 267.164062 202.5 267.003906 C 201.402344 266.839844 200.308594 266.652344 199.222656 266.433594 C 198.136719 266.21875 197.054688 265.976562 195.976562 265.707031 C 194.902344 265.4375 193.832031 265.140625 192.773438 264.820312 C 191.710938 264.496094 190.65625 264.148438 189.613281 263.777344 C 188.570312 263.402344 187.535156 263.003906 186.511719 262.582031 C 185.484375 262.15625 184.472656 261.707031 183.46875 261.234375 C 182.46875 260.757812 181.476562 260.261719 180.5 259.738281 C 179.519531 259.214844 178.558594 258.667969 177.605469 258.101562 C 176.65625 257.53125 175.71875 256.9375 174.796875 256.320312 C 173.875 255.707031 172.96875 255.066406 172.078125 254.40625 C 171.1875 253.746094 170.3125 253.066406 169.453125 252.363281 C 168.597656 251.660156 167.757812 250.933594 166.9375 250.191406 C 166.113281 249.445312 165.3125 248.683594 164.527344 247.898438 C 163.742188 247.113281 162.980469 246.3125 162.234375 245.492188 C 161.488281 244.667969 160.765625 243.832031 160.0625 242.972656 C 159.359375 242.117188 158.675781 241.242188 158.015625 240.351562 C 157.355469 239.460938 156.714844 238.558594 156.101562 237.636719 C 155.484375 236.714844 154.890625 235.777344 154.320312 234.828125 C 153.75 233.875 153.203125 232.910156 152.679688 231.933594 C 152.160156 230.957031 151.660156 229.964844 151.1875 228.964844 C 150.710938 227.960938 150.261719 226.949219 149.839844 225.925781 C 149.414062 224.902344 149.015625 223.867188 148.640625 222.824219 C 148.269531 221.78125 147.917969 220.726562 147.597656 219.667969 C 147.277344 218.605469 146.980469 217.539062 146.710938 216.464844 C 146.441406 215.386719 146.199219 214.308594 145.980469 213.21875 C 145.765625 212.132812 145.578125 211.042969 145.414062 209.945312 C 145.25 208.847656 145.113281 207.75 145.007812 206.644531 C 144.898438 205.542969 144.816406 204.4375 144.761719 203.332031 C 144.707031 202.222656 144.679688 201.117188 144.679688 200.007812 C 144.679688 198.898438 144.707031 197.789062 144.761719 196.683594 C 144.816406 195.578125 144.898438 194.472656 145.007812 193.367188 C 145.113281 192.265625 145.25 191.164062 145.414062 190.070312 C 145.578125 188.972656 145.765625 187.878906 145.980469 186.792969 C 146.199219 185.707031 146.441406 184.625 146.710938 183.550781 C 146.980469 182.476562 147.277344 181.40625 147.597656 180.347656 C 147.917969 179.285156 148.269531 178.234375 148.640625 177.191406 C 149.015625 176.144531 149.414062 175.113281 149.839844 174.089844 C 150.261719 173.0625 150.710938 172.050781 151.1875 171.050781 C 151.660156 170.046875 152.160156 169.058594 152.679688 168.078125 C 153.203125 167.101562 153.75 166.136719 154.320312 165.1875 C 154.890625 164.238281 155.484375 163.300781 156.101562 162.378906 C 156.714844 161.457031 157.355469 160.550781 158.015625 159.660156 C 158.675781 158.769531 159.359375 157.898438 160.0625 157.039062 C 160.765625 156.183594 161.488281 155.34375 162.234375 154.523438 C 162.980469 153.703125 163.742188 152.898438 164.527344 152.113281 C 165.3125 151.332031 166.113281 150.566406 166.9375 149.824219 C 167.757812 149.078125 168.597656 148.355469 169.453125 147.652344 C 170.3125 146.949219 171.1875 146.265625 172.078125 145.605469 C 172.96875 144.945312 173.875 144.308594 174.796875 143.691406 C 175.71875 143.078125 176.65625 142.484375 177.605469 141.914062 C 178.558594 141.34375 179.519531 140.796875 180.5 140.273438 C 181.476562 139.753906 182.46875 139.253906 183.46875 138.78125 C 184.472656 138.304688 185.484375 137.859375 186.511719 137.433594 C 187.535156 137.007812 188.570312 136.609375 189.613281 136.238281 C 190.65625 135.863281 191.710938 135.515625 192.773438 135.195312 C 193.832031 134.871094 194.902344 134.578125 195.976562 134.308594 C 197.054688 134.039062 198.136719 133.796875 199.222656 133.578125 C 200.308594 133.363281 201.402344 133.171875 202.5 133.011719 C 203.597656 132.847656 204.695312 132.710938 205.800781 132.605469 C 206.902344 132.496094 208.011719 132.414062 209.117188 132.359375 C 210.226562 132.304688 211.332031 132.277344 212.441406 132.277344 C 213.550781 132.277344 214.660156 132.304688 215.765625 132.359375 C 216.875 132.414062 217.980469 132.496094 219.085938 132.605469 C 220.1875 132.710938 221.289062 132.847656 222.386719 133.011719 C 223.480469 133.171875 224.574219 133.363281 225.664062 133.578125 C 226.75 133.796875 227.832031 134.039062 228.90625 134.308594 C 229.984375 134.578125 231.050781 134.871094 232.113281 135.195312 C 233.175781 135.515625 234.226562 135.863281 235.269531 136.238281 C 236.316406 136.609375 237.347656 137.007812 238.375 137.433594 C 239.398438 137.859375 240.410156 138.304688 241.414062 138.78125 C 242.417969 139.253906 243.40625 139.753906 244.386719 140.273438 C 245.363281 140.796875 246.328125 141.34375 247.277344 141.914062 C 248.230469 142.484375 249.167969 143.078125 250.089844 143.691406 C 251.011719 144.308594 251.917969 144.945312 252.808594 145.605469 C 253.699219 146.265625 254.574219 146.949219 255.429688 147.652344 C 256.289062 148.355469 257.128906 149.078125 257.949219 149.824219 C 258.769531 150.566406 259.574219 151.332031 260.359375 152.113281 C 261.140625 152.898438 261.90625 153.703125 262.652344 154.523438 C 263.394531 155.34375 264.121094 156.183594 264.824219 157.039062 C 265.527344 157.898438 266.207031 158.769531 266.871094 159.660156 C 267.53125 160.550781 268.167969 161.457031 268.785156 162.378906 C 269.402344 163.300781 269.992188 164.238281 270.5625 165.1875 C 271.132812 166.136719 271.679688 167.101562 272.203125 168.078125 C 272.726562 169.058594 273.222656 170.046875 273.699219 171.050781 C 274.171875 172.050781 274.621094 173.0625 275.046875 174.089844 C 275.472656 175.113281 275.871094 176.144531 276.242188 177.191406 C 276.617188 178.234375 276.964844 179.285156 277.285156 180.347656 C 277.609375 181.40625 277.90625 182.476562 278.175781 183.550781 C 278.441406 184.625 278.6875 185.707031 278.902344 186.792969 C 279.117188 187.878906 279.308594 188.972656 279.472656 190.070312 C 279.632812 191.164062 279.769531 192.265625 279.878906 193.367188 C 279.988281 194.472656 280.070312 195.578125 280.121094 196.683594 C 280.175781 197.789062 280.203125 198.898438 280.203125 200.007812 Z M 280.203125 200.007812 " fill-opacity="1" fill-rule="nonzero"/><path stroke-linecap="round" transform="matrix(0.680822, 0, 0, 0.680488, 14.384429, 39.908369)" fill="none" stroke-linejoin="round" d="M 195.848842 264.868744 C 208.448499 305.37849 246.24173 334.797854 290.902807 334.797854 C 345.868521 334.797854 390.43206 290.241151 390.43206 235.271429 C 390.43206 180.301707 345.868521 135.739264 290.902807 135.739264 C 258.210256 135.739264 229.201211 151.502303 211.047608 175.841445 " stroke="#000000" stroke-width="9.31" stroke-opacity="1" stroke-miterlimit="4"/><path stroke-linecap="round" transform="matrix(0.680822, 0, 0, 0.680488, 14.384429, 39.908369)" fill-opacity="1" fill="#d6cd41" fill-rule="nonzero" stroke-linejoin="round" d="M 326.900186 236.310435 C 326.900186 265.580549 311.242416 276.251885 290.31184 276.251885 C 269.381263 276.251885 253.717756 265.569068 253.717756 236.310435 C 253.717756 207.051802 290.31184 170.267552 290.31184 170.267552 C 290.31184 170.267552 326.900186 207.051802 326.900186 236.310435 Z M 326.900186 236.310435 " stroke="#000000" stroke-width="9.31" stroke-opacity="1" stroke-miterlimit="4"/><path stroke-linecap="round" transform="matrix(0.680822, 0, 0, 0.680488, 14.384429, 39.908369)" fill="none" stroke-linejoin="round" d="M 290.31184 215.111272 L 290.31184 300.269566 " stroke="#000000" stroke-width="9.31" stroke-opacity="1" stroke-miterlimit="4"/><path stroke-linecap="round" transform="matrix(0.680822, 0, 0, 0.680488, 14.384429, 39.908369)" fill="none" stroke-linejoin="round" d="M 290.31184 236.850029 L 306.451563 219.692082 " stroke="#000000" stroke-width="9.31" stroke-opacity="1" stroke-miterlimit="4"/><path stroke-linecap="round" transform="matrix(0.680822, 0, 0, 0.680488, 14.384429, 39.908369)" fill="none" stroke-linejoin="round" d="M 290.31184 257.687549 L 272.731991 233.69857 " stroke="#000000" stroke-width="9.31" stroke-opacity="1" stroke-miterlimit="4"/><path fill="#bcbe13" d="M 152.695312 169.070312 C 156.691406 182.210938 153.804688 197.058594 143.753906 207.832031 C 133.707031 218.597656 119.089844 222.511719 105.695312 219.441406 C 101.699219 206.300781 104.578125 191.445312 114.636719 180.679688 C 124.683594 169.910156 139.292969 166.003906 152.699219 169.070312 Z M 152.695312 169.070312 " fill-opacity="1" fill-rule="nonzero"/><path stroke-linecap="round" transform="matrix(0.680822, 0, 0, 0.680488, 14.384429, 39.908369)" fill="none" stroke-linejoin="round" d="M 152.62789 255.471769 C 149.500926 251.160756 149.122248 245.030047 151.681194 240.357391 C 152.622152 238.652503 153.907363 237.142788 154.68767 235.351794 C 156.7704 230.570071 154.790946 225.128207 153.620486 220.047985 C 152.782804 216.402854 152.3697 212.648656 152.398388 208.911679 C 150.401721 208.779651 148.78947 210.438616 147.521472 211.988514 C 142.810944 217.751839 138.599584 224.031797 136.109488 231.040781 C 133.630867 238.049765 132.971049 245.879621 135.329181 252.940268 C 135.782448 254.289254 136.402103 255.689903 137.589775 256.487813 C 138.438933 257.061849 139.477429 257.251281 140.487237 257.440713 C 142.472429 257.790876 144.440408 258.152519 146.419862 258.502681 C 147.01083 258.611748 147.61901 258.709334 148.198502 258.548604 C 149.512401 258.18122 150.068943 256.527996 149.810754 255.190491 C 149.541089 253.847246 148.697669 252.722135 148.032114 251.528139 C 145.398579 246.838262 145.530542 240.730515 148.359154 236.161186 C 149.477976 234.358711 150.969738 232.791592 151.939384 230.908753 C 153.947526 227.022527 153.482785 222.33265 152.559039 218.050338 C 152.3697 217.177803 151.962334 216.121576 151.067277 216.058432 C 150.527947 216.01825 150.057468 216.391373 149.661577 216.747276 C 143.872391 221.982487 141.267544 229.777901 138.897936 237.217412 C 138.249593 239.249501 137.60125 241.298811 137.337323 243.411265 C 136.832419 247.538586 137.85944 251.838119 140.188885 255.282337 C 140.412649 255.598057 140.659364 255.930998 141.032304 256.028584 C 141.738023 256.229497 142.351941 255.511951 142.678981 254.851809 C 144.899412 250.368586 143.579776 245.012826 144.210906 240.058892 C 144.532209 237.527392 145.358416 235.099218 146.190361 232.682525 C 147.349345 229.28997 148.50833 225.891675 149.67879 222.49912 C 145.662506 235.610111 142.351941 248.411122 152.639365 255.48899 Z M 152.62789 255.471769 " stroke="#ffffff" stroke-width="9.74" stroke-opacity="0.2" stroke-miterlimit="4"/><path stroke-linecap="round" transform="matrix(0.680822, 0, 0, 0.680488, 14.384429, 39.908369)" fill="none" stroke-linejoin="round" d="M 177.821465 195.921237 C 179.789444 197.24152 180.747615 199.658213 181.10908 202.011762 C 181.941025 207.407704 180.248448 212.832348 178.917337 218.130703 C 177.591963 223.429059 176.63953 229.209605 178.831274 234.209462 C 179.468141 235.678995 180.368937 237.02798 181.292682 238.348264 C 181.958237 239.312645 182.732806 240.317209 183.840153 240.661631 C 185.819608 241.28159 187.718736 239.582442 189.032635 237.9694 C 196.692262 228.560944 201.460165 216.689872 201.672454 204.549003 C 201.718354 201.489389 201.247875 197.982027 198.688929 196.300101 C 197.139791 195.278316 195.177549 195.19221 193.330058 195.140547 C 189.210499 195.02 185.079464 194.899452 180.959904 195.169249 C 181.602509 196.208255 182.239377 197.258741 182.681169 198.401074 C 183.358199 200.140404 183.570489 202.040464 183.581964 203.911823 C 183.622126 209.428312 182.038563 214.818514 181.241044 220.277599 C 180.437787 225.742426 180.512375 231.677962 183.490163 236.321916 C 183.759828 236.740962 184.149981 237.200191 184.649148 237.142788 C 184.930288 237.108346 185.171265 236.907433 185.377816 236.71226 C 187.529397 234.691652 189.130173 232.079787 189.950642 229.249788 C 190.23752 228.262445 190.432596 227.22918 190.880125 226.299241 C 191.281754 225.461148 191.872721 224.737862 192.412051 223.980134 C 193.588248 222.33265 194.540681 220.507214 195.372626 218.658817 C 197.501256 213.882834 198.878268 208.682065 198.677454 203.452594 C 198.648766 202.648943 198.579915 201.828071 198.258613 201.087564 C 197.67912 199.738578 196.348009 198.837341 194.948047 198.418295 C 193.548085 197.999248 192.06206 197.999248 190.58751 197.999248 C 189.709665 197.999248 188.768707 198.02795 188.068727 198.561804 C 187.219569 199.198984 187.018755 200.381499 186.869579 201.431986 C 186.089272 207.218272 185.308966 213.02178 184.540134 218.808066 C 183.937692 223.262589 183.352462 227.71137 183.249186 232.200335 C 183.432787 232.539016 183.931954 232.229036 184.149981 231.919057 C 189.709665 223.980134 193.760375 214.979244 196.020969 205.547826 C 196.382434 204.038111 196.520135 202.097868 195.189024 201.299957 C 194.437405 200.857949 193.450547 200.989978 192.721878 201.460687 C 191.987472 201.931397 191.482568 202.671904 191.092415 203.452594 C 190.157194 205.300991 189.801466 207.379002 189.457213 209.422572 C 188.940834 212.510887 188.418717 215.599203 187.902338 218.687519 L 177.798515 195.898275 Z M 177.821465 195.921237 " stroke="#000000" stroke-width="10.09" stroke-opacity="0.1" stroke-miterlimit="4"/><path stroke-linecap="round" transform="matrix(0.680822, 0, 0, 0.680488, 14.384429, 39.908369)" fill="none" stroke-linejoin="round" d="M 203.152741 189.807749 C 209.022253 209.118333 204.782205 230.937455 190.019493 246.769378 C 175.262518 262.58982 153.792612 268.341664 134.118559 263.829738 C 128.249047 244.519155 132.47762 222.688552 147.251807 206.86811 C 162.008782 191.041928 183.467213 185.301564 203.158479 189.807749 Z M 203.152741 189.807749 " stroke="#000000" stroke-width="9.31" stroke-opacity="1" stroke-miterlimit="4"/><path fill="#bcbe13" d="M 19.035156 147.5625 C 14.800781 164.949219 19.652344 184.027344 33.5 197.296875 C 47.355469 210.5625 66.644531 214.570312 83.835938 209.59375 C 88.070312 192.207031 83.222656 173.121094 69.367188 159.859375 C 55.511719 146.59375 36.226562 142.582031 19.027344 147.554688 Z M 19.035156 147.5625 " fill-opacity="1" fill-rule="nonzero"/><path stroke-linecap="round" transform="matrix(0.680822, 0, 0, 0.680488, 14.384429, 39.908369)" fill="none" stroke-linejoin="round" d="M 33.952438 164.739581 C 37.022026 162.328629 41.491577 162.891184 43.838234 166.002461 C 47.2406 170.491426 49.828235 175.479802 49.340543 180.938888 C 48.852851 186.397973 45.318521 191.070629 43.568569 196.271399 C 40.349805 205.817623 43.327592 216.17898 44.80788 226.149991 C 44.888205 226.672365 44.962793 227.22918 44.727554 227.69989 C 44.452152 228.302628 43.780858 228.618348 43.138253 228.790559 C 39.942439 229.617171 36.660561 227.929504 33.952438 226.029444 C 15.328356 213.010299 7.209725 188.068419 10.927656 165.65804 C 14.10052 165.250474 17.279122 164.831427 20.451987 164.418121 C 24.990387 163.832604 29.792715 163.270048 33.981126 165.118445 C 38.158061 166.961102 41.118636 171.082683 42.088282 175.548686 C 43.057927 180.020429 42.180082 184.76197 40.200628 188.87781 C 39.139182 191.08785 37.767908 193.160122 36.947438 195.467748 C 36.069593 197.941845 35.840091 200.588152 35.759766 203.200018 C 35.570427 209.198698 36.098281 215.23182 37.337592 221.098471 C 24.158443 209.020746 18.570071 190.542516 17.58895 172.689985 C 17.548787 172.052805 17.548787 171.329519 17.967628 170.841588 C 18.340569 170.411061 18.937274 170.267552 19.488078 170.152744 C 24.14123 169.188363 29.68944 168.488039 32.971317 171.909296 C 34.468817 173.470674 35.180273 175.657753 35.409775 177.810389 C 36.459747 187.540306 28.86897 196.810993 30.452533 206.472025 C 25.001862 195.777728 29.729602 182.431382 25.891182 171.071203 L 33.952438 164.728101 Z M 33.952438 164.739581 " stroke="#ffffff" stroke-width="12.29" stroke-opacity="0.2" stroke-miterlimit="4"/><path stroke-linecap="round" transform="matrix(0.680822, 0, 0, 0.680488, 14.384429, 39.908369)" fill="none" stroke-linejoin="round" d="M 82.411772 185.23842 C 85.091207 192.97069 84.987931 201.638639 82.107682 209.302024 C 80.92001 212.459224 79.279071 215.461434 78.378276 218.71048 C 76.152107 226.75847 78.64794 235.340314 81.90113 243.032401 C 82.228171 243.818831 82.618324 244.662664 83.341255 245.121893 C 83.972385 245.529459 84.758429 245.581122 85.521523 245.598343 C 89.572233 245.730372 94.058995 245.167816 96.749906 242.142644 C 99.159676 239.427452 99.458029 235.478082 99.371965 231.861653 C 99.171151 224.020317 97.702339 216.247864 95.608134 208.682065 C 93.840969 202.281559 91.557424 195.869573 87.432127 190.668804 C 87.260001 190.45067 87.070661 190.221056 86.800997 190.12921 C 85.779713 189.767567 85.372347 191.420792 85.601849 192.482759 C 88.281284 205.209145 93.1582 217.522225 94.25981 230.478226 C 94.540949 233.801896 94.449149 237.481469 92.251668 239.978527 C 91.121371 241.258628 89.371418 242.108202 87.701792 241.740819 C 84.907606 241.12086 83.869109 237.751266 83.478956 234.921267 C 82.532261 228.050052 82.428985 221.06977 83.180604 214.181333 C 83.289617 213.159549 83.817471 211.827784 84.82728 212.011476 C 85.441198 212.120543 85.779713 212.780685 85.992002 213.371942 C 88.269809 219.732265 86.640345 226.781431 87.357539 233.491916 C 87.437865 234.220943 87.581303 235.018853 88.137845 235.489563 C 89.118966 236.321916 90.679579 235.59863 91.408248 234.548143 C 92.257405 233.319706 92.458219 231.769807 92.601658 230.288794 C 93.359015 221.948045 92.607396 213.469528 90.42139 205.381356 L 82.411772 185.23268 Z M 82.411772 185.23842 " stroke="#000000" stroke-width="11.87" stroke-opacity="0.1" stroke-miterlimit="4"/><path stroke-linecap="round" transform="matrix(0.680822, 0, 0, 0.680488, 14.384429, 39.908369)" fill="none" stroke-linejoin="round" d="M 6.831047 158.201307 C 0.611544 183.751666 7.737579 211.787602 28.077188 231.287617 C 48.428273 250.781892 76.760287 256.671505 102.011238 249.358282 C 108.23074 223.807923 101.110442 195.760506 80.759358 176.271972 C 60.408274 156.777697 32.081997 150.882344 6.819571 158.189827 Z M 6.831047 158.201307 " stroke="#000000" stroke-width="9.31" stroke-opacity="1" stroke-miterlimit="4"/><path stroke-linecap="round" transform="matrix(0.680822, 0, 0, 0.680488, 14.384429, 39.908369)" fill="none" stroke-linejoin="round" d="M 50.327401 192.310548 C 50.327401 192.310548 123.710646 247.412298 123.710646 309.79857 " stroke="#000000" stroke-width="9.31" stroke-opacity="1" stroke-miterlimit="4"/><path stroke-linecap="round" transform="matrix(0.680822, 0, 0, 0.680488, 14.384429, 39.908369)" fill="none" stroke-linejoin="round" d="M 163.839059 226.821614 C 163.839059 226.821614 123.710646 259.357995 123.710646 309.810051 L 123.710646 341.709251 " stroke="#000000" stroke-width="9.31" stroke-opacity="1" stroke-miterlimit="4"/><path fill="#a69481" d="M 96.601562 266.980469 C 60.011719 266.980469 30.355469 296.621094 30.355469 333.191406 L 162.84375 333.191406 C 162.84375 296.621094 133.1875 266.980469 96.601562 266.980469 Z M 96.601562 266.980469 " fill-opacity="1" fill-rule="nonzero"/><path stroke-linecap="round" transform="matrix(0.680822, 0, 0, 0.680488, 14.384429, 39.908369)" fill="none" stroke-linejoin="round" d="M 58.968149 382.339545 C 65.158964 374.498208 72.812854 367.862348 81.499502 362.828049 " stroke="#ffffff" stroke-width="9.31" stroke-opacity="0.8" stroke-miterlimit="4"/><path stroke-linecap="round" transform="matrix(0.680822, 0, 0, 0.680488, 14.384429, 39.908369)" fill="none" stroke-linejoin="round" d="M 99.710481 355.170404 C 100.53095 354.94079 101.351419 354.728396 102.177626 354.527483 " stroke="#ffffff" stroke-width="9.31" stroke-opacity="0.8" stroke-miterlimit="4"/><path stroke-linecap="round" transform="matrix(0.680822, 0, 0, 0.680488, 14.384429, 39.908369)" fill="none" stroke-linejoin="round" d="M 390.449272 431.017829 L 390.449272 409.078159 " stroke="#000000" stroke-width="9.31" stroke-opacity="1" stroke-miterlimit="4"/><path stroke-linecap="round" transform="matrix(0.680822, 0, 0, 0.680488, 14.384429, 39.908369)" fill="none" stroke-linejoin="round" d="M 374.148897 431.017829 L 374.148897 416.069922 " stroke="#000000" stroke-width="9.31" stroke-opacity="1" stroke-miterlimit="4"/><path stroke-linecap="round" transform="matrix(0.680822, 0, 0, 0.680488, 14.384429, 39.908369)" fill="none" stroke-linejoin="round" d="M 357.859997 431.017829 L 357.859997 423.050204 " stroke="#000000" stroke-width="9.31" stroke-opacity="1" stroke-miterlimit="4"/><path stroke-linecap="round" transform="matrix(0.680822, 0, 0, 0.680488, 14.384429, 39.908369)" fill="none" stroke-linejoin="round" d="M 445.277285 103.15122 L 423.348375 103.15122 " stroke="#000000" stroke-width="9.31" stroke-opacity="1" stroke-miterlimit="4"/><path stroke-linecap="round" transform="matrix(0.680822, 0, 0, 0.680488, 14.384429, 39.908369)" fill="none" stroke-linejoin="round" d="M 445.277285 119.448112 L 430.330972 119.448112 " stroke="#000000" stroke-width="9.31" stroke-opacity="1" stroke-miterlimit="4"/><path stroke-linecap="round" transform="matrix(0.680822, 0, 0, 0.680488, 14.384429, 39.908369)" fill="none" stroke-linejoin="round" d="M 445.277285 135.739264 L 437.319306 135.739264 " stroke="#000000" stroke-width="9.31" stroke-opacity="1" stroke-miterlimit="4"/><path stroke-linecap="round" transform="matrix(0.680822, 0, 0, 0.680488, 14.384429, 39.908369)" fill="none" stroke-linejoin="round" d="M 28.530455 426.132779 C 46.821759 426.241846 65.107326 426.350913 83.39863 426.45998 C 85.119895 426.471461 86.898535 426.45998 88.459148 425.748175 C 92.888536 423.710346 93.077875 417.321321 91.138583 412.838097 C 89.199292 408.360613 85.842826 404.35958 85.337922 399.497492 C 84.85023 394.72725 87.260001 390.169401 89.847635 386.139666 C 90.868918 384.549585 91.970528 382.867659 92.027903 380.979079 C 92.079541 379.618613 91.568899 378.298329 91.081208 377.041189 C 87.787855 368.579893 84.488765 360.112857 81.201149 351.651561 C 69.800641 355.440201 60.781214 364.199996 53.167488 373.487904 C 42.730887 386.237252 33.912275 401.20238 32.759028 417.642781 C 48.382372 418.871219 64.06883 419.221381 79.720862 418.687528 C 81.61999 418.630124 83.58797 418.532538 85.280546 417.660002 C 86.967386 416.787467 88.292759 414.910368 87.902606 413.05049 C 87.609991 411.661322 86.468219 410.622317 85.38956 409.692378 C 81.539665 406.357226 77.351254 402.298789 77.580756 397.218568 C 77.729933 393.929339 79.761025 391.070638 81.178199 388.10287 C 84.230575 381.719586 84.540403 374.090643 82.027356 367.489224 C 81.138036 365.141416 79.152845 362.541031 76.697174 363.120808 C 75.721791 363.350422 74.941484 364.062227 74.212815 364.73959 C 60.781214 377.230621 47.022573 390.15792 39.311308 406.799234 C 50.688867 408.46968 62.129538 409.669416 73.610373 410.392702 C 75.480814 410.507509 77.890584 410.249193 78.412701 408.452459 C 78.831542 406.988666 77.569281 405.559316 76.209482 404.881953 C 74.849683 404.19885 73.277595 403.911832 72.101398 402.94745 C 70.001455 401.242562 69.892441 398.03944 70.592422 395.427574 C 71.590756 391.667636 73.811187 388.372667 75.389013 384.819382 C 76.961101 381.260357 77.861896 377.041189 76.117681 373.551048 C 65.279452 381.702365 55.439557 391.179705 46.89061 401.707532 C 51.050332 403.607592 55.531358 404.818809 60.092709 405.278038 C 61.859874 405.46173 64.09178 405.249336 64.757336 403.607592 C 65.658131 401.397552 62.772144 399.428608 62.462316 397.057837 C 62.29019 395.771996 62.909845 394.520597 63.518025 393.372524 C 65.227815 390.100517 66.949079 386.83999 68.658869 383.567983 L 28.547667 426.161481 Z M 28.530455 426.132779 " stroke="#ffffff" stroke-width="16.540001" stroke-opacity="0.2" stroke-miterlimit="4"/><path stroke-linecap="round" transform="matrix(0.680822, 0, 0, 0.680488, 14.384429, 39.908369)" fill="none" stroke-linejoin="round" d="M 120.761546 333.689963 C 67.01793 333.689963 23.458462 377.247843 23.458462 430.989127 L 218.058892 430.989127 C 218.058892 377.247843 174.499424 333.689963 120.761546 333.689963 Z M 120.761546 333.689963 " stroke="#000000" stroke-width="9.31" stroke-opacity="1" stroke-miterlimit="4"/><path stroke-linecap="round" transform="matrix(0.680822, 0, 0, 0.680488, 14.384429, 39.908369)" fill="none" stroke-linejoin="round" d="M 156.431884 345.991563 C 164.131674 350.101663 169.100391 358.849977 168.687288 367.569589 C 168.388935 374.027499 165.411148 380.152467 165.181646 386.610376 C 164.969357 392.741084 167.229951 398.647918 169.461857 404.35958 C 171.131484 408.647632 172.812585 412.941424 174.482212 417.217994 C 175.417432 419.628947 176.450191 422.148967 178.498496 423.727567 C 180.569751 425.329128 183.329512 425.662069 185.928621 425.891684 C 192.377625 426.45998 198.84958 426.741258 205.321535 426.712556 C 207.300989 426.712556 209.699284 426.408317 210.508278 424.600102 C 210.858269 423.807932 210.800893 422.912435 210.732043 422.062861 C 209.45257 406.908301 204.948594 392.029279 197.627482 378.700155 C 196.118507 375.93904 194.471831 373.241069 192.377625 370.88752 C 190.61046 368.912835 188.550681 367.207947 186.502376 365.52028 C 181.252519 361.197786 176.002662 356.892513 170.752805 352.570019 C 168.629912 350.830689 166.449644 349.051176 163.839059 348.190122 C 163.150554 349.498925 163.839059 351.100486 164.567728 352.397808 C 168.899577 360.118598 174.677288 367.029995 181.510709 372.661292 C 184.218832 374.888553 187.122031 376.937863 189.319512 379.670276 C 191.981735 382.959504 193.462022 387.00072 195.200499 390.858245 C 197.260279 395.439055 199.7389 399.841914 201.368364 404.577714 C 202.997828 409.330735 203.749446 414.560206 202.257684 419.35915 C 198.097961 419.031949 193.932501 418.687528 189.772778 418.360327 C 188.051514 418.222558 186.278611 418.067568 184.740948 417.292619 C 182.990996 416.408603 181.71726 414.812782 180.609914 413.188259 C 173.328965 402.63173 170.379865 389.182059 172.577346 376.541778 C 175.101867 376.89768 177.081321 378.797741 178.871436 380.611696 C 183.507376 385.26139 188.189215 389.979969 191.597319 395.588304 C 195.022635 401.20238 197.099628 407.889904 196.032444 414.370774 C 193.519398 414.657792 191.040777 413.268624 189.388363 411.351343 C 187.741686 409.428321 186.74909 407.04033 185.802395 404.698261 C 183.409837 398.83735 181.028755 392.970699 178.641934 387.109787 C 186.152385 365.927845 173.288802 354.958011 156.420409 345.991563 Z M 156.431884 345.991563 " stroke="#000000" stroke-width="14.82" stroke-opacity="0.1" stroke-miterlimit="4"/><path stroke-linecap="round" transform="matrix(0.680822, 0, 0, 0.680488, 14.384429, 39.908369)" fill="none" stroke-linejoin="round" d="M 225.207878 108.340509 C 219.510492 111.210691 219.091651 113.047607 217.347436 116.158884 C 215.930262 118.690384 214.587675 121.330952 214.042608 124.189653 C 213.491804 127.042614 213.801631 130.171112 215.459783 132.559103 C 217.117934 134.952835 220.290799 136.370704 223.062034 135.480948 C 224.978376 134.860989 226.429975 133.29961 227.697974 131.72101 C 228.920071 130.199814 230.061844 128.609733 230.859363 126.83022 C 232.437189 123.299896 232.540464 119.287382 232.460139 115.418377 C 232.419976 113.598682 232.328175 111.721583 231.519181 110.102801 C 230.710187 108.472537 228.988922 107.157994 227.187332 107.399089 C 225.018538 107.691848 223.75054 109.907628 222.798107 111.882313 C 220.491613 116.698478 218.139218 121.61797 217.387599 126.910585 C 217.129409 128.741761 217.232685 130.957542 218.770348 131.979326 C 220.537513 133.15036 222.941546 131.927663 224.398883 130.389246 C 229.011872 125.509936 229.499564 118.122088 229.189736 111.417344 C 229.149573 110.642395 229.000397 109.689494 228.271728 109.408217 C 227.290608 109.029353 226.447188 110.200387 226.051297 111.181989 C 223.698902 116.88791 221.662073 122.72012 219.952283 128.649915 C 220.422762 129.137846 221.289132 128.988597 221.782561 128.517887 C 222.270253 128.047177 222.48828 127.369814 222.677619 126.721153 C 223.429238 124.218355 224.192331 121.732777 224.938213 119.229979 L 225.219353 108.340509 Z M 225.207878 108.340509 " stroke="#ffffff" stroke-width="15.39" stroke-opacity="0.2" stroke-miterlimit="4"/></svg>