<svg width="126" height="126" viewBox="0 0 126 126" fill="none" xmlns="http://www.w3.org/2000/svg">
<mask id="path-1-outside-1_1424_12381" maskUnits="userSpaceOnUse" x="25.7539" y="14.8328" width="75" height="97" fill="black">
<rect fill="white" x="25.7539" y="14.8328" width="75" height="97"/>
<path d="M99.1077 44.3774C99.0366 44.249 98.9407 44.1359 98.8256 44.0448C98.7104 43.9538 98.5783 43.8866 98.4369 43.8471C95.2445 42.954 91.4971 43.5021 88.1556 45.3507C86.1479 46.4427 84.4152 47.9776 83.0891 49.839L83.0625 49.7191C82.0481 45.142 82.0481 43.4127 83.0625 38.8356L83.8228 35.4046C83.8587 35.2427 83.8577 35.0749 83.8201 34.9134C83.7824 34.752 83.709 34.6011 83.6052 34.4718C83.5015 34.3425 83.37 34.2381 83.2205 34.1665C83.071 34.0948 82.9074 34.0576 82.7416 34.0576H68.9603C68.7945 34.0576 68.6309 34.0948 68.4814 34.1665C68.3319 34.2381 68.2004 34.3425 68.0967 34.4718C67.9929 34.601 67.9195 34.752 67.8818 34.9134C67.8442 35.0749 67.8432 35.2427 67.8791 35.4046L68.6394 38.8356C69.6536 43.4127 69.6536 45.142 68.6394 49.7191L67.8791 53.1501C67.8751 53.1681 67.8734 53.1862 67.8703 53.2043C67.8668 53.2249 67.8625 53.2454 67.8602 53.2662C67.8579 53.287 67.8575 53.3074 67.8563 53.3281C67.8552 53.3487 67.8533 53.3691 67.8533 53.3898C67.8533 53.4105 67.8552 53.4309 67.8563 53.4515C67.8575 53.4721 67.8579 53.4928 67.8602 53.5134C67.8625 53.5341 67.8668 53.5547 67.8703 53.5753C67.8734 53.5934 67.8752 53.6115 67.8791 53.6295L68.6394 57.0605C69.6538 61.6376 69.6538 63.3668 68.6394 67.9439L68.0714 70.5071H58.19L57.622 67.9439C56.6075 63.3668 56.6075 61.6376 57.622 57.0605L58.3823 53.6295C58.3862 53.6115 58.388 53.5934 58.391 53.5753C58.3946 53.5547 58.3988 53.5343 58.4012 53.5134C58.4035 53.4926 58.4039 53.4722 58.405 53.4515C58.4062 53.4309 58.4081 53.4105 58.4081 53.3898C58.4081 53.3691 58.4062 53.3487 58.405 53.3281C58.4039 53.3075 58.4035 53.2868 58.4012 53.2662C58.3988 53.2456 58.3946 53.2249 58.391 53.2043C58.388 53.1862 58.3861 53.1681 58.3823 53.1501L57.622 49.7191C56.6076 45.142 56.6076 43.4127 57.622 38.8356L58.3823 35.4046C58.3862 35.3866 58.388 35.3685 58.391 35.3504C58.3946 35.3298 58.3988 35.3094 58.4012 35.2885C58.4035 35.2677 58.4039 35.2473 58.405 35.2266C58.4062 35.206 58.4081 35.1856 58.4081 35.1649C58.4081 35.1442 58.4062 35.1238 58.405 35.1032C58.4039 35.0826 58.4035 35.0619 58.4012 35.0413C58.3988 35.0206 58.3946 35 58.391 34.9794C58.388 34.9613 58.3861 34.9432 58.3823 34.9252L57.622 31.4942C56.6075 26.9171 56.6075 25.1879 57.622 20.6108L58.3823 17.1798C58.4181 17.0179 58.4172 16.8501 58.3795 16.6886C58.3419 16.5272 58.2685 16.3763 58.1647 16.247C58.0609 16.1177 57.9294 16.0133 57.78 15.9417C57.6305 15.87 57.4668 15.8328 57.301 15.8328H43.5198C43.354 15.8328 43.1903 15.87 43.0408 15.9417C42.8914 16.0134 42.7599 16.1177 42.6561 16.247C42.5524 16.3763 42.4789 16.5272 42.4413 16.6886C42.4036 16.8501 42.4027 17.0179 42.4386 17.1798L43.1988 20.6108C44.2132 25.1879 44.2132 26.9171 43.1988 31.4942L43.1564 31.6859C41.8089 29.6569 39.9851 27.9887 37.8443 26.8269C34.5029 24.9783 30.7554 24.4305 27.563 25.3234C27.4217 25.3629 27.2895 25.4302 27.1744 25.5213C27.0592 25.6123 26.9633 25.7254 26.8922 25.8539C26.8212 25.9823 26.7764 26.1237 26.7604 26.2696C26.7445 26.4156 26.7578 26.5632 26.7994 26.704C27.7397 29.8829 30.1953 32.766 33.5367 34.6142C35.7148 35.845 38.1682 36.5064 40.6698 36.5371C41.3341 36.5359 41.9972 36.4798 42.6523 36.3694L43.1988 38.8355C44.2131 43.4127 44.2131 45.1419 43.1988 49.7191L42.4385 53.1501C42.4345 53.168 42.4328 53.1861 42.4297 53.2042C42.4262 53.2248 42.4219 53.2453 42.4196 53.2661C42.4173 53.287 42.4169 53.3074 42.4157 53.328C42.4146 53.3487 42.4127 53.3691 42.4127 53.3897C42.4127 53.4104 42.4146 53.4309 42.4157 53.4515C42.4169 53.472 42.4173 53.4927 42.4196 53.5134C42.4219 53.534 42.4262 53.5547 42.4297 53.5753C42.4328 53.5933 42.4346 53.6114 42.4385 53.6294L43.1988 57.0605C44.2132 61.6376 44.2132 63.3667 43.1988 67.9439L42.5155 71.0274C36.7634 75.0866 33.603 80.4611 33.603 86.2155C33.603 92.2211 37.0277 97.793 43.246 101.905C43.6857 102.19 44.004 102.628 44.139 103.135C44.274 103.641 44.2161 104.18 43.9767 104.646L41.9476 108.549C41.8599 108.718 41.8171 108.906 41.8234 109.096C41.8297 109.286 41.8849 109.472 41.9836 109.634C42.0823 109.797 42.2213 109.931 42.3871 110.025C42.5529 110.118 42.74 110.167 42.9302 110.167H83.512C83.7023 110.167 83.8893 110.118 84.0551 110.025C84.2209 109.931 84.3599 109.797 84.4586 109.634C84.5574 109.472 84.6126 109.286 84.6189 109.096C84.6252 108.906 84.5824 108.718 84.4946 108.549L82.4657 104.646C82.2262 104.18 82.1684 103.641 82.3034 103.135C82.4384 102.628 82.7566 102.19 83.1964 101.905C89.4147 97.7929 92.8392 92.2209 92.8392 86.2154C92.8392 80.3903 89.5999 74.9552 83.713 70.879L83.0625 67.9437C82.048 63.3665 82.048 61.6374 83.0625 57.0603L83.5358 54.9246C84.1298 55.0144 84.7296 55.0599 85.3304 55.0607C87.8319 55.0299 90.2852 54.3685 92.4632 53.1379C95.8047 51.2895 98.2604 48.4063 99.2007 45.2276C99.2423 45.0868 99.2555 44.9391 99.2395 44.7932C99.2235 44.6472 99.1787 44.5059 99.1077 44.3774ZM70.8019 38.3563L70.3402 36.2723H81.362L80.9002 38.3563C79.821 43.2259 79.821 45.3287 80.9002 50.1984L81.362 52.2823H70.34L70.8018 50.1984C71.8809 45.3287 71.881 43.2259 70.8019 38.3563ZM70.8019 56.5811L70.3402 54.4971H81.362L80.9002 56.5811C79.821 61.4506 79.821 63.5534 80.9002 68.4229L81.362 70.5069H70.34L70.8018 68.4229C71.8809 63.5534 71.881 61.4506 70.8019 56.5811ZM45.3614 56.5811L44.8996 54.4971H55.9214L55.4597 56.5811C54.3805 61.4506 54.3805 63.5534 55.4597 68.4229L55.9214 70.5069H44.8995L45.3613 68.4229C46.4404 63.5534 46.4405 61.4506 45.3614 56.5811ZM45.3614 38.3563L44.8996 36.2723H55.9214L55.4597 38.3563C54.3805 43.2259 54.3805 45.3287 55.4597 50.1984L55.9214 52.2823H44.8995L45.3613 50.1984C46.4404 45.3287 46.4405 43.2259 45.3614 38.3563ZM45.3614 20.1317L44.8996 18.0477H55.9214L55.4597 20.1317C54.3805 25.0012 54.3805 27.104 55.4597 31.9735L55.9214 34.0575H44.8995L45.3613 31.9735C46.4404 27.104 46.4405 25.0012 45.3614 20.1317ZM34.609 32.6761C32.1869 31.3364 30.322 29.3864 29.345 27.2106C31.7068 26.8808 34.35 27.4252 36.7723 28.765C39.1944 30.1046 41.0593 32.0549 42.0362 34.2308C39.6737 34.5597 37.0309 34.0159 34.609 32.6761ZM90.6244 86.2154C90.6244 91.4531 87.5525 96.3689 81.9748 100.057C81.0776 100.644 80.4301 101.542 80.1577 102.579C79.8854 103.615 80.0075 104.716 80.5005 105.668L81.6882 107.952H44.7542L45.9419 105.668C46.4349 104.716 46.5571 103.615 46.2847 102.579C46.0123 101.542 45.3648 100.644 44.4676 100.057C38.8898 96.3689 35.8179 91.4532 35.8179 86.2155C35.8179 81.1504 38.7045 76.3693 43.9555 72.7218H82.4868C87.7378 76.3693 90.6244 81.1503 90.6244 86.2154ZM91.3911 51.2C88.9689 52.5396 86.3262 53.084 83.9639 52.7544C84.9407 50.5785 86.8056 48.6285 89.2278 47.2886C91.6501 45.9488 94.2926 45.4047 96.6551 45.7342C95.6782 47.91 93.8133 49.86 91.3911 51.2Z"/>
</mask>
<path d="M99.1077 44.3774C99.0366 44.249 98.9407 44.1359 98.8256 44.0448C98.7104 43.9538 98.5783 43.8866 98.4369 43.8471C95.2445 42.954 91.4971 43.5021 88.1556 45.3507C86.1479 46.4427 84.4152 47.9776 83.0891 49.839L83.0625 49.7191C82.0481 45.142 82.0481 43.4127 83.0625 38.8356L83.8228 35.4046C83.8587 35.2427 83.8577 35.0749 83.8201 34.9134C83.7824 34.752 83.709 34.6011 83.6052 34.4718C83.5015 34.3425 83.37 34.2381 83.2205 34.1665C83.071 34.0948 82.9074 34.0576 82.7416 34.0576H68.9603C68.7945 34.0576 68.6309 34.0948 68.4814 34.1665C68.3319 34.2381 68.2004 34.3425 68.0967 34.4718C67.9929 34.601 67.9195 34.752 67.8818 34.9134C67.8442 35.0749 67.8432 35.2427 67.8791 35.4046L68.6394 38.8356C69.6536 43.4127 69.6536 45.142 68.6394 49.7191L67.8791 53.1501C67.8751 53.1681 67.8734 53.1862 67.8703 53.2043C67.8668 53.2249 67.8625 53.2454 67.8602 53.2662C67.8579 53.287 67.8575 53.3074 67.8563 53.3281C67.8552 53.3487 67.8533 53.3691 67.8533 53.3898C67.8533 53.4105 67.8552 53.4309 67.8563 53.4515C67.8575 53.4721 67.8579 53.4928 67.8602 53.5134C67.8625 53.5341 67.8668 53.5547 67.8703 53.5753C67.8734 53.5934 67.8752 53.6115 67.8791 53.6295L68.6394 57.0605C69.6538 61.6376 69.6538 63.3668 68.6394 67.9439L68.0714 70.5071H58.19L57.622 67.9439C56.6075 63.3668 56.6075 61.6376 57.622 57.0605L58.3823 53.6295C58.3862 53.6115 58.388 53.5934 58.391 53.5753C58.3946 53.5547 58.3988 53.5343 58.4012 53.5134C58.4035 53.4926 58.4039 53.4722 58.405 53.4515C58.4062 53.4309 58.4081 53.4105 58.4081 53.3898C58.4081 53.3691 58.4062 53.3487 58.405 53.3281C58.4039 53.3075 58.4035 53.2868 58.4012 53.2662C58.3988 53.2456 58.3946 53.2249 58.391 53.2043C58.388 53.1862 58.3861 53.1681 58.3823 53.1501L57.622 49.7191C56.6076 45.142 56.6076 43.4127 57.622 38.8356L58.3823 35.4046C58.3862 35.3866 58.388 35.3685 58.391 35.3504C58.3946 35.3298 58.3988 35.3094 58.4012 35.2885C58.4035 35.2677 58.4039 35.2473 58.405 35.2266C58.4062 35.206 58.4081 35.1856 58.4081 35.1649C58.4081 35.1442 58.4062 35.1238 58.405 35.1032C58.4039 35.0826 58.4035 35.0619 58.4012 35.0413C58.3988 35.0206 58.3946 35 58.391 34.9794C58.388 34.9613 58.3861 34.9432 58.3823 34.9252L57.622 31.4942C56.6075 26.9171 56.6075 25.1879 57.622 20.6108L58.3823 17.1798C58.4181 17.0179 58.4172 16.8501 58.3795 16.6886C58.3419 16.5272 58.2685 16.3763 58.1647 16.247C58.0609 16.1177 57.9294 16.0133 57.78 15.9417C57.6305 15.87 57.4668 15.8328 57.301 15.8328H43.5198C43.354 15.8328 43.1903 15.87 43.0408 15.9417C42.8914 16.0134 42.7599 16.1177 42.6561 16.247C42.5524 16.3763 42.4789 16.5272 42.4413 16.6886C42.4036 16.8501 42.4027 17.0179 42.4386 17.1798L43.1988 20.6108C44.2132 25.1879 44.2132 26.9171 43.1988 31.4942L43.1564 31.6859C41.8089 29.6569 39.9851 27.9887 37.8443 26.8269C34.5029 24.9783 30.7554 24.4305 27.563 25.3234C27.4217 25.3629 27.2895 25.4302 27.1744 25.5213C27.0592 25.6123 26.9633 25.7254 26.8922 25.8539C26.8212 25.9823 26.7764 26.1237 26.7604 26.2696C26.7445 26.4156 26.7578 26.5632 26.7994 26.704C27.7397 29.8829 30.1953 32.766 33.5367 34.6142C35.7148 35.845 38.1682 36.5064 40.6698 36.5371C41.3341 36.5359 41.9972 36.4798 42.6523 36.3694L43.1988 38.8355C44.2131 43.4127 44.2131 45.1419 43.1988 49.7191L42.4385 53.1501C42.4345 53.168 42.4328 53.1861 42.4297 53.2042C42.4262 53.2248 42.4219 53.2453 42.4196 53.2661C42.4173 53.287 42.4169 53.3074 42.4157 53.328C42.4146 53.3487 42.4127 53.3691 42.4127 53.3897C42.4127 53.4104 42.4146 53.4309 42.4157 53.4515C42.4169 53.472 42.4173 53.4927 42.4196 53.5134C42.4219 53.534 42.4262 53.5547 42.4297 53.5753C42.4328 53.5933 42.4346 53.6114 42.4385 53.6294L43.1988 57.0605C44.2132 61.6376 44.2132 63.3667 43.1988 67.9439L42.5155 71.0274C36.7634 75.0866 33.603 80.4611 33.603 86.2155C33.603 92.2211 37.0277 97.793 43.246 101.905C43.6857 102.19 44.004 102.628 44.139 103.135C44.274 103.641 44.2161 104.18 43.9767 104.646L41.9476 108.549C41.8599 108.718 41.8171 108.906 41.8234 109.096C41.8297 109.286 41.8849 109.472 41.9836 109.634C42.0823 109.797 42.2213 109.931 42.3871 110.025C42.5529 110.118 42.74 110.167 42.9302 110.167H83.512C83.7023 110.167 83.8893 110.118 84.0551 110.025C84.2209 109.931 84.3599 109.797 84.4586 109.634C84.5574 109.472 84.6126 109.286 84.6189 109.096C84.6252 108.906 84.5824 108.718 84.4946 108.549L82.4657 104.646C82.2262 104.18 82.1684 103.641 82.3034 103.135C82.4384 102.628 82.7566 102.19 83.1964 101.905C89.4147 97.7929 92.8392 92.2209 92.8392 86.2154C92.8392 80.3903 89.5999 74.9552 83.713 70.879L83.0625 67.9437C82.048 63.3665 82.048 61.6374 83.0625 57.0603L83.5358 54.9246C84.1298 55.0144 84.7296 55.0599 85.3304 55.0607C87.8319 55.0299 90.2852 54.3685 92.4632 53.1379C95.8047 51.2895 98.2604 48.4063 99.2007 45.2276C99.2423 45.0868 99.2555 44.9391 99.2395 44.7932C99.2235 44.6472 99.1787 44.5059 99.1077 44.3774ZM70.8019 38.3563L70.3402 36.2723H81.362L80.9002 38.3563C79.821 43.2259 79.821 45.3287 80.9002 50.1984L81.362 52.2823H70.34L70.8018 50.1984C71.8809 45.3287 71.881 43.2259 70.8019 38.3563ZM70.8019 56.5811L70.3402 54.4971H81.362L80.9002 56.5811C79.821 61.4506 79.821 63.5534 80.9002 68.4229L81.362 70.5069H70.34L70.8018 68.4229C71.8809 63.5534 71.881 61.4506 70.8019 56.5811ZM45.3614 56.5811L44.8996 54.4971H55.9214L55.4597 56.5811C54.3805 61.4506 54.3805 63.5534 55.4597 68.4229L55.9214 70.5069H44.8995L45.3613 68.4229C46.4404 63.5534 46.4405 61.4506 45.3614 56.5811ZM45.3614 38.3563L44.8996 36.2723H55.9214L55.4597 38.3563C54.3805 43.2259 54.3805 45.3287 55.4597 50.1984L55.9214 52.2823H44.8995L45.3613 50.1984C46.4404 45.3287 46.4405 43.2259 45.3614 38.3563ZM45.3614 20.1317L44.8996 18.0477H55.9214L55.4597 20.1317C54.3805 25.0012 54.3805 27.104 55.4597 31.9735L55.9214 34.0575H44.8995L45.3613 31.9735C46.4404 27.104 46.4405 25.0012 45.3614 20.1317ZM34.609 32.6761C32.1869 31.3364 30.322 29.3864 29.345 27.2106C31.7068 26.8808 34.35 27.4252 36.7723 28.765C39.1944 30.1046 41.0593 32.0549 42.0362 34.2308C39.6737 34.5597 37.0309 34.0159 34.609 32.6761ZM90.6244 86.2154C90.6244 91.4531 87.5525 96.3689 81.9748 100.057C81.0776 100.644 80.4301 101.542 80.1577 102.579C79.8854 103.615 80.0075 104.716 80.5005 105.668L81.6882 107.952H44.7542L45.9419 105.668C46.4349 104.716 46.5571 103.615 46.2847 102.579C46.0123 101.542 45.3648 100.644 44.4676 100.057C38.8898 96.3689 35.8179 91.4532 35.8179 86.2155C35.8179 81.1504 38.7045 76.3693 43.9555 72.7218H82.4868C87.7378 76.3693 90.6244 81.1503 90.6244 86.2154ZM91.3911 51.2C88.9689 52.5396 86.3262 53.084 83.9639 52.7544C84.9407 50.5785 86.8056 48.6285 89.2278 47.2886C91.6501 45.9488 94.2926 45.4047 96.6551 45.7342C95.6782 47.91 93.8133 49.86 91.3911 51.2Z" fill="#285A43"/>
<path d="M99.1077 44.3774C99.0366 44.249 98.9407 44.1359 98.8256 44.0448C98.7104 43.9538 98.5783 43.8866 98.4369 43.8471C95.2445 42.954 91.4971 43.5021 88.1556 45.3507C86.1479 46.4427 84.4152 47.9776 83.0891 49.839L83.0625 49.7191C82.0481 45.142 82.0481 43.4127 83.0625 38.8356L83.8228 35.4046C83.8587 35.2427 83.8577 35.0749 83.8201 34.9134C83.7824 34.752 83.709 34.6011 83.6052 34.4718C83.5015 34.3425 83.37 34.2381 83.2205 34.1665C83.071 34.0948 82.9074 34.0576 82.7416 34.0576H68.9603C68.7945 34.0576 68.6309 34.0948 68.4814 34.1665C68.3319 34.2381 68.2004 34.3425 68.0967 34.4718C67.9929 34.601 67.9195 34.752 67.8818 34.9134C67.8442 35.0749 67.8432 35.2427 67.8791 35.4046L68.6394 38.8356C69.6536 43.4127 69.6536 45.142 68.6394 49.7191L67.8791 53.1501C67.8751 53.1681 67.8734 53.1862 67.8703 53.2043C67.8668 53.2249 67.8625 53.2454 67.8602 53.2662C67.8579 53.287 67.8575 53.3074 67.8563 53.3281C67.8552 53.3487 67.8533 53.3691 67.8533 53.3898C67.8533 53.4105 67.8552 53.4309 67.8563 53.4515C67.8575 53.4721 67.8579 53.4928 67.8602 53.5134C67.8625 53.5341 67.8668 53.5547 67.8703 53.5753C67.8734 53.5934 67.8752 53.6115 67.8791 53.6295L68.6394 57.0605C69.6538 61.6376 69.6538 63.3668 68.6394 67.9439L68.0714 70.5071H58.19L57.622 67.9439C56.6075 63.3668 56.6075 61.6376 57.622 57.0605L58.3823 53.6295C58.3862 53.6115 58.388 53.5934 58.391 53.5753C58.3946 53.5547 58.3988 53.5343 58.4012 53.5134C58.4035 53.4926 58.4039 53.4722 58.405 53.4515C58.4062 53.4309 58.4081 53.4105 58.4081 53.3898C58.4081 53.3691 58.4062 53.3487 58.405 53.3281C58.4039 53.3075 58.4035 53.2868 58.4012 53.2662C58.3988 53.2456 58.3946 53.2249 58.391 53.2043C58.388 53.1862 58.3861 53.1681 58.3823 53.1501L57.622 49.7191C56.6076 45.142 56.6076 43.4127 57.622 38.8356L58.3823 35.4046C58.3862 35.3866 58.388 35.3685 58.391 35.3504C58.3946 35.3298 58.3988 35.3094 58.4012 35.2885C58.4035 35.2677 58.4039 35.2473 58.405 35.2266C58.4062 35.206 58.4081 35.1856 58.4081 35.1649C58.4081 35.1442 58.4062 35.1238 58.405 35.1032C58.4039 35.0826 58.4035 35.0619 58.4012 35.0413C58.3988 35.0206 58.3946 35 58.391 34.9794C58.388 34.9613 58.3861 34.9432 58.3823 34.9252L57.622 31.4942C56.6075 26.9171 56.6075 25.1879 57.622 20.6108L58.3823 17.1798C58.4181 17.0179 58.4172 16.8501 58.3795 16.6886C58.3419 16.5272 58.2685 16.3763 58.1647 16.247C58.0609 16.1177 57.9294 16.0133 57.78 15.9417C57.6305 15.87 57.4668 15.8328 57.301 15.8328H43.5198C43.354 15.8328 43.1903 15.87 43.0408 15.9417C42.8914 16.0134 42.7599 16.1177 42.6561 16.247C42.5524 16.3763 42.4789 16.5272 42.4413 16.6886C42.4036 16.8501 42.4027 17.0179 42.4386 17.1798L43.1988 20.6108C44.2132 25.1879 44.2132 26.9171 43.1988 31.4942L43.1564 31.6859C41.8089 29.6569 39.9851 27.9887 37.8443 26.8269C34.5029 24.9783 30.7554 24.4305 27.563 25.3234C27.4217 25.3629 27.2895 25.4302 27.1744 25.5213C27.0592 25.6123 26.9633 25.7254 26.8922 25.8539C26.8212 25.9823 26.7764 26.1237 26.7604 26.2696C26.7445 26.4156 26.7578 26.5632 26.7994 26.704C27.7397 29.8829 30.1953 32.766 33.5367 34.6142C35.7148 35.845 38.1682 36.5064 40.6698 36.5371C41.3341 36.5359 41.9972 36.4798 42.6523 36.3694L43.1988 38.8355C44.2131 43.4127 44.2131 45.1419 43.1988 49.7191L42.4385 53.1501C42.4345 53.168 42.4328 53.1861 42.4297 53.2042C42.4262 53.2248 42.4219 53.2453 42.4196 53.2661C42.4173 53.287 42.4169 53.3074 42.4157 53.328C42.4146 53.3487 42.4127 53.3691 42.4127 53.3897C42.4127 53.4104 42.4146 53.4309 42.4157 53.4515C42.4169 53.472 42.4173 53.4927 42.4196 53.5134C42.4219 53.534 42.4262 53.5547 42.4297 53.5753C42.4328 53.5933 42.4346 53.6114 42.4385 53.6294L43.1988 57.0605C44.2132 61.6376 44.2132 63.3667 43.1988 67.9439L42.5155 71.0274C36.7634 75.0866 33.603 80.4611 33.603 86.2155C33.603 92.2211 37.0277 97.793 43.246 101.905C43.6857 102.19 44.004 102.628 44.139 103.135C44.274 103.641 44.2161 104.18 43.9767 104.646L41.9476 108.549C41.8599 108.718 41.8171 108.906 41.8234 109.096C41.8297 109.286 41.8849 109.472 41.9836 109.634C42.0823 109.797 42.2213 109.931 42.3871 110.025C42.5529 110.118 42.74 110.167 42.9302 110.167H83.512C83.7023 110.167 83.8893 110.118 84.0551 110.025C84.2209 109.931 84.3599 109.797 84.4586 109.634C84.5574 109.472 84.6126 109.286 84.6189 109.096C84.6252 108.906 84.5824 108.718 84.4946 108.549L82.4657 104.646C82.2262 104.18 82.1684 103.641 82.3034 103.135C82.4384 102.628 82.7566 102.19 83.1964 101.905C89.4147 97.7929 92.8392 92.2209 92.8392 86.2154C92.8392 80.3903 89.5999 74.9552 83.713 70.879L83.0625 67.9437C82.048 63.3665 82.048 61.6374 83.0625 57.0603L83.5358 54.9246C84.1298 55.0144 84.7296 55.0599 85.3304 55.0607C87.8319 55.0299 90.2852 54.3685 92.4632 53.1379C95.8047 51.2895 98.2604 48.4063 99.2007 45.2276C99.2423 45.0868 99.2555 44.9391 99.2395 44.7932C99.2235 44.6472 99.1787 44.5059 99.1077 44.3774ZM70.8019 38.3563L70.3402 36.2723H81.362L80.9002 38.3563C79.821 43.2259 79.821 45.3287 80.9002 50.1984L81.362 52.2823H70.34L70.8018 50.1984C71.8809 45.3287 71.881 43.2259 70.8019 38.3563ZM70.8019 56.5811L70.3402 54.4971H81.362L80.9002 56.5811C79.821 61.4506 79.821 63.5534 80.9002 68.4229L81.362 70.5069H70.34L70.8018 68.4229C71.8809 63.5534 71.881 61.4506 70.8019 56.5811ZM45.3614 56.5811L44.8996 54.4971H55.9214L55.4597 56.5811C54.3805 61.4506 54.3805 63.5534 55.4597 68.4229L55.9214 70.5069H44.8995L45.3613 68.4229C46.4404 63.5534 46.4405 61.4506 45.3614 56.5811ZM45.3614 38.3563L44.8996 36.2723H55.9214L55.4597 38.3563C54.3805 43.2259 54.3805 45.3287 55.4597 50.1984L55.9214 52.2823H44.8995L45.3613 50.1984C46.4404 45.3287 46.4405 43.2259 45.3614 38.3563ZM45.3614 20.1317L44.8996 18.0477H55.9214L55.4597 20.1317C54.3805 25.0012 54.3805 27.104 55.4597 31.9735L55.9214 34.0575H44.8995L45.3613 31.9735C46.4404 27.104 46.4405 25.0012 45.3614 20.1317ZM34.609 32.6761C32.1869 31.3364 30.322 29.3864 29.345 27.2106C31.7068 26.8808 34.35 27.4252 36.7723 28.765C39.1944 30.1046 41.0593 32.0549 42.0362 34.2308C39.6737 34.5597 37.0309 34.0159 34.609 32.6761ZM90.6244 86.2154C90.6244 91.4531 87.5525 96.3689 81.9748 100.057C81.0776 100.644 80.4301 101.542 80.1577 102.579C79.8854 103.615 80.0075 104.716 80.5005 105.668L81.6882 107.952H44.7542L45.9419 105.668C46.4349 104.716 46.5571 103.615 46.2847 102.579C46.0123 101.542 45.3648 100.644 44.4676 100.057C38.8898 96.3689 35.8179 91.4532 35.8179 86.2155C35.8179 81.1504 38.7045 76.3693 43.9555 72.7218H82.4868C87.7378 76.3693 90.6244 81.1503 90.6244 86.2154ZM91.3911 51.2C88.9689 52.5396 86.3262 53.084 83.9639 52.7544C84.9407 50.5785 86.8056 48.6285 89.2278 47.2886C91.6501 45.9488 94.2926 45.4047 96.6551 45.7342C95.6782 47.91 93.8133 49.86 91.3911 51.2Z" stroke="#285A43" stroke-width="2" mask="url(#path-1-outside-1_1424_12381)"/>
<path d="M76.4607 101.003H49.9816C49.5553 101.003 49.1465 101.173 48.845 101.474C48.5436 101.775 48.3742 102.184 48.3742 102.611C48.3742 103.037 48.5436 103.446 48.845 103.747C49.1465 104.049 49.5553 104.218 49.9816 104.218H76.4607C76.8871 104.218 77.2959 104.049 77.5974 103.747C77.8988 103.446 78.0682 103.037 78.0682 102.611C78.0682 102.184 77.8988 101.775 77.5974 101.474C77.2959 101.173 76.8871 101.003 76.4607 101.003Z" fill="#285A43" stroke="#285A43"/>
</svg>
