<svg width="126" height="126" viewBox="0 0 126 126" fill="none" xmlns="http://www.w3.org/2000/svg">
<path d="M47.1675 26.9343L47.521 26.5807C47.6703 26.73 47.7887 26.9072 47.8695 27.1022C47.9502 27.2972 47.9918 27.5063 47.9918 27.7174C47.9918 27.9285 47.9502 28.1375 47.8695 28.3325C47.7887 28.5275 47.6703 28.7048 47.521 28.854C47.3717 29.0033 47.1945 29.1217 46.9995 29.2025C46.8045 29.2833 46.5954 29.3248 46.3843 29.3248C46.1732 29.3248 45.9642 29.2832 45.7692 29.2025C45.5742 29.1217 45.397 29.0033 45.2477 28.854L45.2477 28.854M47.1675 26.9343L45.6012 28.5004L45.2477 28.854M47.1675 26.9343L47.521 26.5807L45.0069 24.0666L45.0069 24.0666M47.1675 26.9343L45.0069 24.0666M45.2477 28.854L42.7336 26.34M45.2477 28.854L42.7336 26.34M42.7336 26.34C42.7336 26.34 42.7336 26.34 42.7336 26.34M42.7336 26.34L42.7336 26.34M45.0069 24.0666C44.7055 23.7652 44.2966 23.5958 43.8703 23.5958C43.4439 23.5958 43.0351 23.7652 42.7336 24.0667L43.0872 24.4202M45.0069 24.0666L43.0872 24.4202M43.0872 24.4202L42.7336 24.0667C42.4322 24.3681 42.2628 24.777 42.2628 25.2033M43.0872 24.4202L42.2628 25.2033M42.2628 25.2033C42.2628 25.6296 42.4322 26.0385 42.7336 26.34M42.2628 25.2033L42.7336 26.34" fill="#285A43" stroke="#285A43"/>
<path d="M73.9349 26.581L73.9349 26.581L75.0715 28.8249L75.0709 29.3249C75.0711 29.3249 75.0712 29.3249 75.0714 29.3249C75.2826 29.3251 75.4917 29.2836 75.6868 29.2027C75.8819 29.1219 76.0591 29.0034 76.2083 28.8539C76.2083 28.8539 76.2084 28.8539 76.2084 28.8539C76.2085 28.8537 76.2086 28.8536 76.2087 28.8535L78.7205 26.3413C78.871 26.1927 78.9908 26.016 79.0729 25.8211C79.1553 25.6256 79.1981 25.4156 79.1989 25.2035C79.1998 24.9913 79.1586 24.781 79.0778 24.5848C78.997 24.3886 78.8781 24.2103 78.7281 24.0603C78.578 23.9103 78.3998 23.7915 78.2036 23.7107C78.0073 23.6299 77.7971 23.5887 77.5849 23.5896C77.3727 23.5905 77.1628 23.6334 76.9672 23.7158C76.7724 23.7979 76.5957 23.9177 76.4472 24.0682L73.9349 26.581Z" fill="#285A43" stroke="#285A43"/>
<path d="M81.0128 43.6683H86.3231C86.7494 43.6683 87.1582 43.499 87.4597 43.1975C87.7611 42.8961 87.9305 42.4872 87.9305 42.0609C87.9305 41.6346 87.7611 41.2257 87.4597 40.9243L87.1061 41.2778L87.4597 40.9243C87.1582 40.6228 86.7494 40.4535 86.3231 40.4535H81.0128C80.5865 40.4535 80.1776 40.6228 79.8762 40.9243C79.5748 41.2257 79.4054 41.6346 79.4054 42.0609C79.4054 42.4872 79.5747 42.8961 79.8762 43.1975C80.1777 43.499 80.5865 43.6683 81.0128 43.6683Z" fill="#285A43" stroke="#285A43"/>
<path d="M35.1328 43.6683H40.4431C40.8694 43.6683 41.2782 43.499 41.5797 43.1975C41.8811 42.8961 42.0505 42.4872 42.0505 42.0609C42.0505 41.6346 41.8811 41.2257 41.5797 40.9243L41.2261 41.2778L41.5797 40.9243C41.2782 40.6228 40.8694 40.4535 40.4431 40.4535H35.1328C34.7065 40.4535 34.2976 40.6228 33.9962 40.9243C33.6947 41.2257 33.5254 41.6346 33.5254 42.0609C33.5254 42.4872 33.6947 42.8961 33.9962 43.1975C34.2976 43.499 34.7065 43.6683 35.1328 43.6683Z" fill="#285A43" stroke="#285A43"/>
<path d="M60.7279 23.3835C61.1542 23.3835 61.5631 23.2141 61.8645 22.9127C62.166 22.6112 62.3353 22.2024 62.3353 21.7761V16.4658C62.3353 16.0395 62.166 15.6307 61.8645 15.3292C61.5631 15.0278 61.1542 14.8584 60.7279 14.8584C60.3016 14.8584 59.8927 15.0278 59.5913 15.3292L59.9448 15.6828L59.5913 15.3292C59.2898 15.6307 59.1205 16.0395 59.1205 16.4658V21.7761C59.1205 22.2024 59.2898 22.6112 59.5913 22.9127C59.8927 23.2141 60.3016 23.3835 60.7279 23.3835Z" fill="#285A43" stroke="#285A43"/>
<path d="M46.4003 50.7144L30.1481 62.8026C29.947 62.9522 29.7837 63.1468 29.6711 63.3707C29.5586 63.5947 29.5 63.8418 29.5 64.0925V109.534C29.5 109.961 29.6693 110.369 29.9708 110.671L29.9708 110.671C30.2723 110.972 30.6811 111.142 31.1074 111.142H90.3483C90.7746 111.142 91.1834 110.972 91.4849 110.671C91.7863 110.369 91.9557 109.961 91.9557 109.534V64.0925C91.9557 63.8418 91.8971 63.5947 91.7846 63.3707C91.672 63.1468 91.5087 62.9522 91.3076 62.8026L75.0554 50.7144C76.5289 48.2785 77.3585 45.5047 77.4619 42.6546C77.571 39.6485 76.8684 36.6685 75.4278 34.0278C73.9872 31.3872 71.8619 29.1833 69.2752 27.6479C66.6885 26.1124 63.7359 25.3021 60.7279 25.3021C57.7198 25.3021 54.7672 26.1124 52.1805 27.6479C49.5939 29.1833 47.4685 31.3872 46.0279 34.0278C44.5873 36.6685 43.8847 39.6485 43.9938 42.6546C44.0972 45.5047 44.9268 48.2785 46.4003 50.7144ZM48.9914 48.787C47.8151 46.7443 47.1947 44.4251 47.1975 42.0615V42.0606C47.1963 39.9636 47.6825 37.895 48.6179 36.018C49.5532 34.1411 50.912 32.5073 52.587 31.2456C54.262 29.9838 56.2074 29.1287 58.2695 28.7477C60.3317 28.3667 62.4542 28.4702 64.4694 29.0502C66.4847 29.6301 68.3376 30.6705 69.8818 32.0893C71.4261 33.5081 72.6194 35.2664 73.3676 37.2255C74.1157 39.1845 74.3983 41.2907 74.1929 43.3776C74.0053 45.2847 73.415 47.128 72.4633 48.7865L61.687 40.7711L61.687 40.7711C61.4097 40.5649 61.0733 40.4535 60.7278 40.4535C60.3822 40.4535 60.0458 40.5649 59.7685 40.7711L59.7685 40.7711L48.9914 48.787ZM88.7407 107.927H32.7149V64.9001L60.7279 44.0643L88.7408 64.9001L88.7407 107.927Z" fill="#285A43" stroke="#285A43"/>
<path d="M47.7333 71.2183H47.7328H46.7405C46.3142 71.2183 45.9053 71.3876 45.6039 71.6891C45.3024 71.9905 45.1331 72.3994 45.1331 72.8257L45.1331 73.818L45.1331 73.8186C45.1377 77.669 46.6613 81.362 49.3731 84.0955C51.9683 86.7115 55.451 88.2464 59.1204 88.4045V95.545C54.4827 95.8147 49.9895 97.2733 46.0745 99.784L46.0742 99.7842C45.7155 100.015 45.463 100.378 45.3723 100.795C45.2816 101.211 45.3601 101.647 45.5905 102.005C45.8209 102.364 46.1844 102.617 46.601 102.707C47.0173 102.798 47.4525 102.72 47.811 102.49C51.6671 100.021 56.1495 98.7095 60.7279 98.7095C65.3053 98.7095 69.7869 100.021 73.6424 102.488C73.8193 102.604 74.0173 102.683 74.2251 102.723C74.4339 102.762 74.6485 102.759 74.8563 102.715C75.0642 102.671 75.2612 102.586 75.436 102.465C75.6108 102.345 75.7599 102.19 75.8748 102.011C75.9896 101.833 76.0678 101.633 76.1049 101.424C76.1421 101.214 76.1374 101 76.0911 100.793C76.0448 100.585 75.9578 100.389 75.8352 100.216C75.7132 100.043 75.5581 99.8956 75.3791 99.7828C71.4647 97.2728 66.9721 95.8146 62.3352 95.545V88.4045C66.0046 88.2464 69.4873 86.7115 72.0825 84.0955C74.7942 81.362 76.3178 77.6689 76.3224 73.8186V73.818V72.8257C76.3224 72.3994 76.1531 71.9905 75.8516 71.6891C75.5502 71.3876 75.1413 71.2183 74.715 71.2183L73.7227 71.2183L73.7222 71.2183C70.8504 71.2212 68.0431 72.0697 65.6503 73.6578C63.5606 75.0448 61.8679 76.9423 60.7278 79.1629C59.5877 76.9423 57.895 75.0448 55.8052 73.6578C53.4125 72.0697 50.6051 71.2212 47.7333 71.2183ZM51.6869 81.8666C49.7026 79.8823 48.5243 77.2408 48.3661 74.4513C51.1556 74.6095 53.7971 75.7878 55.7814 77.7721C57.7656 79.7563 58.9439 82.3979 59.1021 85.1874C56.3126 85.0291 53.6711 83.8508 51.6869 81.8666ZM65.6742 77.7721C67.6584 75.7878 70.2999 74.6095 73.0895 74.4513C72.9312 77.2408 71.7528 79.8824 69.7686 81.8666C67.7843 83.8508 65.1428 85.0291 62.3533 85.1874C62.5115 82.3978 63.6899 79.7563 65.6742 77.7721Z" fill="#285A43" stroke="#285A43"/>
</svg>
