<svg width="126" height="126" viewBox="0 0 126 126" fill="none" xmlns="http://www.w3.org/2000/svg">
<path d="M79.4376 80.6368V80.6361C79.4376 80.2098 79.2683 79.8009 78.9668 79.4995C78.6654 79.198 78.2565 79.0287 77.8302 79.0287L77.8296 79.0287C74.5284 79.0328 71.3046 80.0295 68.5771 81.8892C66.1715 83.5295 64.2499 85.7744 62.9999 88.3889C61.75 85.7744 59.8284 83.5295 57.4228 81.8892C54.6953 80.0295 51.4715 79.0328 48.1703 79.0287H48.1697C47.7434 79.0287 47.3345 79.198 47.0331 79.4995C46.7316 79.8009 46.5623 80.2098 46.5623 80.6361L46.5623 80.6368C46.5677 84.7964 48.1482 88.7997 50.986 91.8412C53.7175 94.7688 57.4187 96.596 61.3925 96.9903V104.815C56.46 105.087 51.6787 106.631 47.5159 109.301L47.5156 109.301C47.1569 109.531 46.9045 109.895 46.8138 110.311C46.7231 110.728 46.8016 111.163 47.032 111.522C47.2624 111.881 47.6258 112.133 48.0424 112.224C48.4587 112.315 48.894 112.236 49.2525 112.006C53.3564 109.379 58.1272 107.983 63 107.983C67.8727 107.983 72.6435 109.379 76.7474 112.006C76.9248 112.12 77.1229 112.198 77.3304 112.235C77.5381 112.273 77.7512 112.269 77.9575 112.224C78.1638 112.179 78.3591 112.094 78.5325 111.973C78.7059 111.853 78.8538 111.7 78.9679 111.522C79.082 111.344 79.16 111.146 79.1974 110.938C79.2349 110.731 79.231 110.518 79.1861 110.311C79.1412 110.105 79.0561 109.91 78.9357 109.736C78.8153 109.563 78.6619 109.415 78.4843 109.301L78.484 109.301C74.3212 106.631 69.5399 105.087 64.6074 104.815V96.9903C68.5812 96.596 72.2824 94.7688 75.0139 91.8412C77.8517 88.7997 79.4322 84.7964 79.4376 80.6368ZM78.6133 79.853C78.4056 79.6454 78.1239 79.5287 77.8302 79.5287L78.9376 80.6361C78.9376 80.3424 78.821 80.0607 78.6133 79.853ZM68.485 86.1212C70.5478 84.0584 73.2294 82.7383 76.1101 82.3562C75.728 85.2369 74.4079 87.9185 72.3451 89.9813C70.2824 92.0441 67.6008 93.3642 64.7201 93.7463C65.1022 90.8656 66.4223 88.184 68.485 86.1212ZM53.6548 89.9813C51.592 87.9185 50.2719 85.2369 49.8898 82.3562C52.7705 82.7383 55.4521 84.0584 57.5149 86.1212C59.5776 88.184 60.8977 90.8656 61.2798 93.7463C58.3992 93.3642 55.7175 92.0441 53.6548 89.9813Z" fill="white" stroke="white"/>
<path d="M62.9994 59.1998H63C66.3326 59.1998 69.5904 58.2116 72.3614 56.36C75.1323 54.5085 77.292 51.8769 78.5673 48.798C79.8427 45.719 80.1763 42.3311 79.5262 39.0625C78.876 35.7939 77.2712 32.7915 74.9147 30.435C72.5582 28.0785 69.5558 26.4737 66.2872 25.8235C63.0186 25.1734 59.6307 25.5071 56.5517 26.7824C53.4728 28.0577 50.8412 30.2174 48.9897 32.9884C47.1382 35.7594 46.1499 39.0171 46.1499 42.3497L46.1499 42.3503C46.155 46.8175 47.9318 51.1003 51.0906 54.2591C54.2494 57.4179 58.5322 59.1948 62.9994 59.1998ZM63.0004 28.7147C65.697 28.7148 68.3331 29.5145 70.5753 31.0127C72.8176 32.511 74.5652 34.6405 75.5972 37.132C76.6292 39.6235 76.8992 42.3651 76.3731 45.0101C75.847 47.655 74.5483 50.0846 72.6414 51.9915C70.7345 53.8984 68.3049 55.197 65.66 55.7231C63.015 56.2492 60.2734 55.9792 57.7819 54.9472C55.2904 53.9151 53.1609 52.1675 51.6627 49.9252C50.1645 47.683 49.3648 45.0469 49.3647 42.3502C49.3689 38.7351 50.8068 35.2693 53.3631 32.713C55.9194 30.1568 59.3853 28.7189 63.0004 28.7147Z" fill="white" stroke="white"/>
<path d="M76.3063 57.9294L76.3063 57.9294L78.8378 60.4608C78.8378 60.4608 78.8378 60.4608 78.8378 60.4608C78.987 60.6101 79.1642 60.7285 79.3593 60.8092C79.5543 60.89 79.7633 60.9316 79.9744 60.9316C80.1855 60.9316 80.3945 60.89 80.5896 60.8092C80.7846 60.7285 80.9618 60.61 81.1111 60.4608C81.2603 60.3115 81.3787 60.1343 81.4595 59.9393C81.5403 59.7442 81.5819 59.5352 81.5819 59.3241C81.5819 59.113 81.5403 58.904 81.4595 58.709C81.3787 58.5139 81.2603 58.3367 81.111 58.1875L81.111 58.1875L78.5796 55.6561C78.5796 55.6561 78.5796 55.6561 78.5796 55.6561C78.4303 55.5069 78.2531 55.3885 78.0581 55.3077C77.8631 55.2269 77.654 55.1853 77.4429 55.1853C77.2318 55.1853 77.0228 55.2269 76.8278 55.3077C76.6327 55.3884 76.4555 55.5068 76.3063 55.6561C76.157 55.8054 76.0386 55.9826 75.9578 56.1776C75.877 56.3726 75.8355 56.5817 75.8354 56.7928C75.8354 57.0039 75.877 57.2129 75.9578 57.4079C76.0386 57.603 76.157 57.7802 76.3063 57.9294Z" fill="white" stroke="white"/>
<path d="M49.6937 26.7701L49.6937 26.77L47.1622 24.2386C47.1622 24.2386 47.1622 24.2386 47.1622 24.2386C46.8607 23.9372 46.4519 23.7678 46.0256 23.7678C45.5992 23.7678 45.1904 23.9372 44.8889 24.2386C44.5874 24.5401 44.4181 24.949 44.4181 25.3753C44.4181 25.8016 44.5875 26.2105 44.8889 26.512L44.8889 26.512L47.4204 29.0433C47.4204 29.0433 47.4204 29.0434 47.4204 29.0434C47.5697 29.1926 47.7469 29.311 47.9419 29.3918C48.1369 29.4726 48.3459 29.5142 48.557 29.5142C48.7681 29.5142 48.9772 29.4726 49.1722 29.3918C49.3672 29.311 49.5444 29.1926 49.6937 29.0434C49.843 28.8941 49.9614 28.7169 50.0421 28.5219C50.1229 28.3268 50.1645 28.1178 50.1645 27.9067C50.1645 27.6956 50.1229 27.4866 50.0422 27.2916C49.9614 27.0965 49.843 26.9193 49.6937 26.7701Z" fill="white" stroke="white"/>
<path d="M78.8378 24.2386L78.8377 24.2386L76.3063 26.7701L76.3063 26.7701C76.0048 27.0716 75.8354 27.4805 75.8354 27.9068C75.8355 28.3331 76.0048 28.742 76.3063 29.0434C76.6077 29.3449 77.0166 29.5142 77.4429 29.5142C77.8693 29.5142 78.2781 29.3449 78.5796 29.0434C78.5796 29.0434 78.5796 29.0434 78.5796 29.0434L81.1111 26.512C81.4125 26.2105 81.5819 25.8016 81.5819 25.3753C81.5819 24.949 81.4125 24.5401 81.1111 24.2386C80.8096 23.9372 80.4007 23.7678 79.9744 23.7678C79.5481 23.7678 79.1392 23.9372 78.8378 24.2386Z" fill="white" stroke="white"/>
<path d="M49.6937 57.9294C49.843 57.7802 49.9614 57.603 50.0422 57.4079C50.123 57.2129 50.1645 57.0039 50.1645 56.7928C50.1645 56.5817 50.123 56.3727 50.0422 56.1776C49.9614 55.9826 49.843 55.8054 49.6937 55.6561L49.6936 55.6561C49.3921 55.3547 48.9833 55.1854 48.557 55.1854C48.1308 55.1854 47.722 55.3547 47.4205 55.6561L47.4204 55.6561L44.8889 58.1875L44.8889 58.1875C44.5875 58.4889 44.4181 58.8978 44.4181 59.3241C44.4181 59.7505 44.5874 60.1593 44.8889 60.4608C45.1904 60.7623 45.5992 60.9316 46.0255 60.9316C46.4519 60.9316 46.8607 60.7623 47.1622 60.4608M49.6937 57.9294L49.3401 57.5759L49.6937 57.9294L49.6937 57.9294ZM49.6937 57.9294L47.1622 60.4608M47.1622 60.4608L46.8105 60.109L47.1622 60.4608L47.1622 60.4608Z" fill="white" stroke="white"/>
<path d="M90.0032 40.7423H83.4255C82.9992 40.7423 82.5904 40.9117 82.2889 41.2131C81.9875 41.5146 81.8181 41.9234 81.8181 42.3497C81.8181 42.776 81.9875 43.1849 82.2889 43.4864C82.5904 43.7878 82.9992 43.9572 83.4255 43.9572H90.0032C90.4295 43.9572 90.8383 43.7878 91.1398 43.4864C91.4412 43.1849 91.6106 42.776 91.6106 42.3497C91.6106 41.9234 91.4412 41.5146 91.1398 41.2131C90.8383 40.9117 90.4295 40.7423 90.0032 40.7423Z" fill="white" stroke="white"/>
<path d="M42.5744 40.7423H35.9968C35.5705 40.7423 35.1617 40.9117 34.8602 41.2131C34.5588 41.5146 34.3894 41.9234 34.3894 42.3497C34.3894 42.776 34.5588 43.1849 34.8602 43.4864C35.1617 43.7878 35.5705 43.9572 35.9968 43.9572H42.5744C43.0008 43.9572 43.4096 43.7878 43.7111 43.4864C44.0125 43.1849 44.1819 42.776 44.1819 42.3497C44.1819 41.9234 44.0125 41.5146 43.7111 41.2131C43.4096 40.9117 43.0008 40.7423 42.5744 40.7423Z" fill="white" stroke="white"/>
<path d="M61.3926 62.7753V69.3529C61.3926 69.7792 61.5619 70.188 61.8634 70.4895L61.8634 70.4895C62.1648 70.7909 62.5737 70.9603 63 70.9603C63.4263 70.9603 63.8352 70.7909 64.1366 70.4895C64.4381 70.188 64.6074 69.7792 64.6074 69.3529V62.7753C64.6074 62.349 64.4381 61.9401 64.1366 61.6387C63.8352 61.3372 63.4263 61.1678 63 61.1678C62.5737 61.1678 62.1648 61.3372 61.8634 61.6387C61.5619 61.9401 61.3926 62.349 61.3926 62.7753Z" fill="white" stroke="white"/>
<path d="M63 23.5315C63.4263 23.5315 63.8352 23.3622 64.1366 23.0607C64.4381 22.7593 64.6074 22.3504 64.6074 21.9241V15.3464C64.6074 14.9201 64.4381 14.5113 64.1366 14.2098C63.8352 13.9084 63.4263 13.739 63 13.739C62.5737 13.739 62.1648 13.9084 61.8634 14.2098C61.5619 14.5113 61.3926 14.9201 61.3926 15.3464V21.924C61.3926 21.924 61.3926 21.924 61.3926 21.924C61.3926 22.1351 61.4341 22.3441 61.5149 22.5392C61.5957 22.7342 61.7141 22.9114 61.8633 23.0607C62.0126 23.21 62.1898 23.3284 62.3848 23.4092C62.5799 23.49 62.7889 23.5315 63 23.5315Z" fill="white" stroke="white"/>
</svg>
